<mxfile host="app.diagrams.net" modified="2024-01-26T13:20:23.417Z" agent="Mozilla/5.0 (X11; Linux x86_64) AppleWebKit/537.36 (KHTML, like Gecko) Chrome/119.0.0.0 Safari/537.36" etag="x2sXcLsXD0ScdFlOiBKG" version="22.1.20" type="device">
  <diagram name="fragments" id="_Xm94IoWgVgbZ_SHRb7_">
    <mxGraphModel dx="722" dy="677" grid="1" gridSize="10" guides="1" tooltips="1" connect="1" arrows="1" fold="1" page="1" pageScale="1" pageWidth="827" pageHeight="1169" math="0" shadow="0">
      <root>
        <mxCell id="0" />
        <mxCell id="1" parent="0" />
        <mxCell id="gF-pBE-bCyinGbdZzywU-1" value="" style="shape=image;verticalLabelPosition=bottom;labelBackgroundColor=default;verticalAlign=top;aspect=fixed;imageAspect=0;image=data:image/png,iVBORw0KGgoAAAANSUhEUgAABFAAAAMMCAIAAAD7DsRpAAAAA3NCSVQICAjb4U/gAAAgAElEQVR4XuzdCXRc13kn+Hp7vdo37Du4U1wliqIoWrZky4tsx0q8TOLESdr2JONx1klPJunkpGcy6TNnjs8knbTTieOxx273SeI43mLHthTLWiyRIkWJOyEuWIgdqELt61vne1VksQAUwMJKFPB/B6YKb7nvvt8tA/Xh3vtdZmhoyIYNAhCAAAQgAAEIQAACEIDAZhRgN+ND4ZkgAAEIQAACEIAABCAAAQhYAgh48D6AAAQgAAEIQAACEIAABDatAAKeTdu0eDAIQAACEIAABCAAAQhAAAEP3gMQgAAEIAABCEAAAhCAwKYVQMCzaZsWDwYBCEAAAhCAAAQgAAEIIODBewACEIAABCAAAQhAAAIQ2LQCCHg2bdPiwSAAAQhAAAIQgAAEIAABBDx4D0AAAhCAAAQgAAEIQAACm1YAAc+mbVo8GAQgAAEIQAACEIAABCCAgAfvAQhAAAIQgAAEIAABCEBg0wog4Nm0TYsHgwAEILDWAkNDQ93d3c8///xa3wjlQwACEIAABJYtgIBn2XS4EAIQgAAEIAABCEAAAhDY6AIIeDZ6C6F+EIAABCAAAQhAAAIQgMCyBfhlX4kLIQABCEAAAmUBTdM++clP9vX1ffvb325vb89kMp/73Od++MMfxuPxnp6e3/3d333Pe95TOvnIkSPPPPPM+Pj4a6+9ZhjGRz7ykT/8wz/kOI6OLnII1BCAAAQgAIHlCaCHZ3luuAoCEIAABGYJUNBy9uzZL3/5yxTt0IHf/M3ffPbZZ2nnV7/61ePHj3/2s5+lWKh8wde+9rUTJ0784z/+I+3/yle+8jd/8ze1HII4BCAAAQhAYBkC6OFZBhougQAEIACBWQJ//ud//q1vfeuLX/zi/v37Swc+9alPtba2Ut8OfXvs2LF//ud/fvHFF/fs2VM6+tGPfvTjH/84vd65cydlPvjSl770mc98ptTJs8ghoEMAAhCAAASWIYAenmWg4RIIQAACELgr8P3vf/+v/uqvqDPnySefLO89evToCy+8QEPXaJQaRUGpVCqZTJaPyrJcfv3EE0/EYrGpqanSnkUOAR0CEIAABCCwDAEEPMtAwyUQgAAEIHBXgCbt8Dx/5syZSpQ/+ZM/+eu//utPfOITf//3f08zefx+/0JkPp+PDoXD4fknLHJo/snYAwEIQAACEKgqgICnKgt2QgACEIBArQKUdeAv/uIvnnvuua9//eulaxRF+cY3vvF7v/d7H/7wh2nQGs3qYdkFf91MT0/TVaFQaP79Fjk0/2TsgQAEIAABCFQVWPA3UNWzsRMCEIAABCAwR+B973vfBz/4QYpt/vRP//TWrVt0NJ1OU9K28mk0SyeRSFReRSPcyt9SboNAINDc3Fzas8ghyEMAAhCAAASWIYCkBctAwyUQgAAEIDBXgKIdytJG6aepb4cCmAMHDlC3D52Uz+e/8IUvUPxDiarL11AOA0ppQNN7Xnrppe9+97u///u/X8pYQCcscmjuLfE9BCAAAQhAoAYBBDw1IOEUCEAAAhC4l4DT6fzLv/xLGt72+c9//rd/+7dpAs8f//Ef/9mf/RnN3vmt3/qtU6dO5XK5chk/8zM/Q1mq//Zv/1YQhE9/+tO//uu/Xsuhe1UBxyEAAQhAAAJVBBgaaVBlN3ZBAAIQgAAE1kaAOnZ+9md/9o/+6I/mF7/IofknYw8EIAABCECgFgHM4alFCedAAAIQgAAEIAABCEAAAnUpgICnLpsNlYYABCAAAQhAAAIQgAAEahHAkLZalHAOBCAAAQhAAAIQgAAEIFCXAujhqctmQ6UhAAEIQAACEIAABCAAgVoEEPDUooRzIAABCEAAAhCAAAQgAIG6FEDAU5fNhkpDAAIQgAAEIAABCEAAArUIIOCpRQnnQAACEIAABCAAAQhAAAJ1KYCApy6bDZWGAAQgAAEIQAACEIAABGoRQMBTixLOgQAEIAABCEAAAhCAAATqUgABT102GyoNAQhAAAIQgAAEIAABCNQigICnFiWcAwEIQAACEIAABCAAAQjUpQACnrpsNlQaAhCAAAQgAAEIQAACEKhFAAFPLUo4BwIQgAAEIAABCEAAAhCoSwEEPHXZbKg0BCAAAQhAAAIQgAAEIFCLAAKeWpRwDgQgAAEIQAACEIAABCBQlwIIeOqy2VBpCEAAAhCAAAQgAAEIQKAWAQQ8tSjhHAhAAAIQgAAEIAABCECgLgUQ8NRls6HSEIAABCAAAQhAAAIQgEAtAgh4alHCORCAAAQgAAEIQAACEIBAXQog4KnLZkOlIQABCEAAAhCAAAQgAIFaBBDw1KKEcyAAAQhAAAIQgAAEIACBuhRAwFOXzYZKQwACEIAABCAAAQhAAAK1CCDgqUUJ50AAAhCAAAQgAAEIQAACdSmAgKcumw2VhgAEIAABCEAAAhCAAARqEUDAU4sSzoEABCAAAQhAAAIQgAAE6lIAAU9dNhsqDQEIQAACEIAABCAAAQjUIoCApxYlnAMBCEAAAhCAAAQgAAEI1KUAAp66bDZUGgIQgAAEIAABCEAAAhCoRQABTy1KOAcCEIAABCAAAQhAAAIQqEsBBDx12WyoNAQgAAEIQAACEIAABCBQiwACnlqUcA4EIAABCEAAAhCAAAQgUJcCCHjqstlQaQhAAAIQgAAEIAABCECgFgEEPLUo4RwIQAACEIAABCAAAQhAoC4FEPDUZbOh0hCAAAQgAAEIQAACEIBALQIIeGpRwjkQgAAEIAABCEAAAhCAQF0KIOCpy2ZDpSEAAQhAAAIQgAAEIACBWgQQ8NSihHMgAAEIQAACEIAABCAAgboUQMBTl82GSkMAAhCAAAQgAAEIQAACtQgg4KlFCedAAAIQgAAEIAABCEAAAnUpgICnLpsNlYYABCAAAQhAAAIQgAAEahFAwFOLEs6BAAQgAAEIQAACEIAABOpSAAFPXTYbKg0BCEAAAhCAAAQgAAEI1CKAgKcWJZwDAQhAAAIQgAAEIAABCNSlAAKeumw2VBoCEIAABCAAAQhAAAIQqEUAAU8tSjgHAhCAAAQgAAEIQAACEKhLAQQ8ddlsqDQEIAABCEAAAhCAAAQgUIsAAp5alHAOBCAAAQhAAAIQgAAEIFCXAgh46rLZUGkIQAACEIAABCAAAQhAoBYBBDy1KOEcCEAAAhCAAAQgAAEIQKAuBRDw1GWzodIQgAAEIAABCEAAAhCAQC0CCHhqUcI5EIAABCAAAQhAAAIQgEBdCiDgqctmQ6UhAAEIQAACEIAABCAAgVoEEPDUooRzIAABCEAAAhCAAAQgAIG6FEDAU5fNhkpDAAIQgAAEIAABCEAAArUIIOCpRQnnQAACEIAABCAAAQhAAAJ1KYCApy6bDZWGAAQgAAEIQAACEIAABGoR4Gs5CedAAALrJmCa5rrdCzeCAAQgAIG1EGAYZi2KRZkQgMDyBBDwLM8NV0FglQUq4xzEPKuMi+IgAAEIrKMARTvlH+OIfNYRHreCwIICCHgWpMEBCKyPQPn3Ir0ovUbAsz7yuAsEIACBtRAoBTn0bznyQdizFs4oEwK1CyDgqd0KZ0Jg9QXKEU5ltFN+vfr3Q4kQgAAEILCWAqU4pxTqzHm9lrdF2RCAwGICCHgW08ExCKypQDnaMQyDXtO/pRfo51lTdhQOAQhAYI0ESj05pTiHLW70uvQv/WBHP88asaNYCNxTAAHPPYlwAgTWUKAU59C/uq4LghAKhVwuF/12XMNbomgIQAACEFhLAfrTVTqdjkQiqqpyHEfflmKetbwnyoYABBYTwOeqxXRwDAJrJ1DuxilFOzzPd3d3ezweRDtrZ46SIQABCKyDAP0Ypx/m9COdfrDTH7Poh3z5B/463B23gAAE5gsg4Jlvgj0QWCeB0m9B+uOfpmnBYBChzjq54zYQgAAE1l6AfqTTD3b68V45Vnntb4s7QAACVQQQ8FRBwS4IrI9A6W9+9Pc/GvZAfw5cn5viLhCAAAQgsD4C9IOdfrzTD3m6XekH/vrcF3eBAATmCCDgwVsCAvdToNTJQ38CRPfO/WwG3BsCEIDAGgjQD3b68V4e0rYGd0CREIBATQIIeGpiwkkQWF2B0u+/8r/0G3F1y0dpEIAABCCwEQTKAU/5B/5GqBXqAIGtJoCAZ6u1OJ53YwngV+DGag/UBgIQgMCqCuCH/KpyojAILFMAAc8y4XAZBFZLgH4d0pTW1SoN5UAAAhCAwMYRKGUs2Dj1QU0gsDUFEPBszXbHU0MAAhCAAAQgAAEIQGBLCCDg2RLNjIeEAAQgAAEIQAACEIDA1hRAwLM12x1PDQEIQAACEIAABCAAgS0hgIBnSzQzHhICEIAABCAAAQhAAAJbUwABz9Zsdzw1BCAAAQhAAAIQgAAEtoQAAp4t0cx4SAhAAAIQgAAEIAABCGxNAQQ8W7Pd8dQQgAAEIAABCEAAAhDYEgIIeLZEM+MhIQABCEAAAhCAAAQgsDUFEPBszXbHU0MAAhCAAAQgAAEIQGBLCCDg2RLNjIeEAAQgAAEIQAACEIDA1hRAwLM12x1PDQEIQAACEIAABCAAgS0hgIBnSzQzHhICEIAABCAAAQhAAAJbUwABz9Zsdzw1BCAAAQhAAAIQgAAEtoQAAp4t0cx4SAhAAAIQgAAEIAABCGxNAQQ8W7Pd8dQQgAAEIAABCEAAAhDYEgIIeLZEM+MhIQABCEAAAhCAAAQgsDUFEPBszXbHU0MAAhCAAAQgAAEIQGBLCCDg2RLNjIeEAAQgAAEIQAACEIDA1hRAwLM12x1PDQEIQAACEIAABCAAgS0hgIBnSzQzHhICEIAABCAAAQhAAAJbUwABz9Zsdzw1BCAAAQhAAAIQgAAEtoQAvyWeEg8JAQhAYMMJmKZh6oahGqZWfMEwNp7lBJbhOZalb+gLGwQgAAEIQAACKxZAwLNiQhQAAQhAoHYB09R0I6mo01llIqNM59SEouU0CnhMlrGJHOsSuEZZaHeJLU7JZxc4jqu9bJwJAQhAAAIQgMB8AQQ8802wBwIQgMDqC1CHTkbRhlP5t6LZoWQhWtAKFOXYTNvsrpzS9wLDhOzCLr98MORqcUkIe1a/PVAiBCAAAQhsGQEEPFumqfGgEIDAfRIwTTNVUPuimXPh9GhayesGDVaj/hz6ominaqV005ygLqCc8mY482CD65FmV9BhZzDIrSoWdkIAAhCAAAQWFUDAsygPDkIAAhBYkYCZUzQKdV6bTA2nrR4dilm46jHO3NsUwyFbStFeGo/3J3Lv6vTt8jvR1TOXCd9DAAIQgAAE7iWAgOdeQjgOAQhAYFkChmGMJnMvjSdoDJtSnKJTimGWVFipU2ckXfjGjciT7dojLR6Rx8/tJRHiZAhAAAIQ2OoC+MW51d8BeH4IQGBJArquq6qqaVpBVTkaZHZnmBlb3HieFwRKtMZkVf3NcOrlsUQ0T6ctJ9SprBVFShlVf3Y4mjeMt7f5RR6ZDJbUaDgZAhCAAAS2tAACni3d/Hh4CEDgngLUUZNMpyOJZCSZnskW0oZZMGz5guLLJR7dv0eSJKsEK8W0aeg09cbaKBw6Pxp5ZTprc3o4u2xjSz9pKUMBpSRY5kaBFXUTvTASp3zVj7d50c+zTEdcBgEIQAACW08AAc/Wa3M8MQQgUIMAxS3ReOLWdHgolo7pTJ4XbaLE2J0sx1MXj0+bevLYkZDfX45gaMYNdf4kUqmZZGpkYvr1519KJRKs7OS8fsYX4oIh3htkRTtDnTXLDXvoFpppvjgac/Ls0RYvrdZjPYdpreFDK/moukHfUOcSLeMj0EI+1vi52mYL1aCBUyAAAQhAAAL1K4CAp37bDjWHAATWRCCbzfbfGr4+NRNhRNXhZV0NHMcLFKfQ3Yo9OXJy+qk9PUG/n16XakAD22KJxJkbQ8N5QxHtqi7nBMmmqoaaMJMJc2TIFHjXjj1Mc6suOlmHmxXEYtiz5A4fimDyuvlvI7FGh9DmlMJZZSxjrecTo8V8aAXTYsDjFmklH7HTLbQ6Jbck0kC7NWFCoRCAAAQgAIE6EUDAUycNhWpCAAJrL0BBy5WBob6pWNruEnxtgmQXrf4YKzIphza22PSJjsaGUOjuLoZJJBLPXboedgaFkIOW0OF13dPeITjkbDisZlI23WRU1RaNNPb2GCIXi47lbRzva+Ak2WZSt0ytWzHisoXsfLdHvh7P0wQhSmaQUQ0aSEdHyr059A3DZCSWbXIIB4LOfSFngJ4DYU+tzDgPAhCAAAQ2mwACns3WongeCEBgGQLxZPLS4Mi1ZD4rOcWOHZT+uRhElIOaYpEMo6VTB13c9s72yminkM+/3Hcz4gwJMgUw1mWxgRu8LPe8631KMpmemsjHojS9Rw4EctEow7DNbe0FpRCNjCiCg/M3cLd7e+5Ra+q+cQncDp/DIXDDqdyFSJp6dGjYGsU5VfNcq4YxnCqMpJULkczbWj0PhFyY9nMPYhyGAAQgAIFNKoCAZ5M2LB4LAhCoTYAGsF0aHL4Sy2RlLx8K2otdOrMDndsFmYbhyScP7tpJvSWVJ9wcHR+xybzsoO4aOpSZHM9Ho02HHmR43h4I2oPBUtxEw95MXc9MTcQH+0W3u72nt5DLzkQnFdHJufwMx5aCpYVq3e22d3nsY5nCpZk0zdihUKdqnFN5eTELtkm9QN8amKEFT9/e7vXYiykWsEEAAhCAAAS2kgACnq3U2nhWCECgQiBfKLx1a/TCVDRl9wihNpECEqM8K2eeFMPo2Qx1sLjc7spoxzD0oViScYWsaIdh1FQy3t8f3LuPE+3WfB8agnZnno51FcO4WtvlUGN6dDjSd9nZ0NTe1ZVOxCPRccMT5CQrZJp3Y2uHyLHUsXMunE4q2lLX86HzacXTVyYSMUX/QE8wIItVb4GdEIAABCAAgc0qgIBns7YsngsCEFhQgNKpXR8afuX85cHJGcptRovnOFtb/T3bWbGUS6D6hWIuta27a84xGqtWoCk6NEOGYQxNjbx11dPVZafsbUb10IX202I93t7tzubW+K2B8OWLno7O1obA2MBN3d/E+Rur9vMoutEXzdDwtWKnzZK30kXUNaQb5jPbgn4r5llWQUu+My6AAAQgAAEI3H8BBDz3vw1QAwhAYD0FUunMi+cunjxzPjYxadMUSupMd5+51pednGo7foKikSqVodk7hfw2iQn4vHNGu1ECN5mjsWqajRGiN64LThf14SwU7ZRLphM4WQ7t2ZcY7B964d84XtQ1RRQGCj17pM7tNgqf7iRJKF9yZ4HTKrWrcRcla7saywhDzId6gm47+nlqZMNpEIAABCBQ9wLVfrXX/UPhASAAAQhUFwhHY8+e77tw/lJyZJRGsFE/hzV5hjbTmLne5+vp9XR1Vw1X+FTs0K521kpmcGeMWvEOlPS5J+gdnE6nMxk1k2469BB19cwPV6rUhgoyzMTwcCEWs/pbWEahk2Kv2bJZcec+mv9TUyFVyl1sFz3qpUgmIPJPdfmFqqHdYlfjGAQgAAEIQKAuBbA+Q102GyoNAQgsQ4AWEn3uav+NiXBqZISxWdHO3Y2+V5RcdKZasVb3To/MNgaDpWiH5urQcjelL4p+etvbgulIbGgwtHuv1UE0r3OmWpmlfaauFugVw1GRxVFmupq/ej578Yyez1uB0xpsNKno1FTyUiRN8dYaFI8iIQABCEAAAhtOAD08G65JUCEIQGAtBAqFwktXb4RZe7K/39Q0ijHm3sXKBlDtb0C0O5Pc29NUTs42Nj7VPzCYyxdCQf/O7b00BUibiXibGgW3p2rv0Nwb3fme4ThvR1fs5g2bqd/eZ1VK1wb6HE57oXuvTbIvJXxa6D6z9tMd8prx4miC1i1tcss1XYOTIAABCEAAAvUsgICnnlsPdYcABGoWOHvt5pjg1hLJfDxWJdqh1WwE0UEppOdthqY1MmpjMEBHqIfn1Ok3vv+j52PxBA1I43h+5/auzvb2ndt7Gkz2Zi7L228vxTOvmCo7qARvT29wbM/MW5etw3dCMFpJtFeyyVLhbMHGrkHMQ5HdRE45OZn8gCxgYFuVhsEuCEAAAhDYXALV/py5uZ4QTwMBCEDgrcFbF5Oq6PFp+WzVThhTN12trY6GJiuVdOVGuddymd6AR6QEbjbbjf7Bb/3Lj6LROA03YylXgalf6bt5pe/6rh3bH+zpENPRJXbImKwgth073rj/MCOIhk45rk3ryzS9Hs8HHtxzQCzoCk3tmdcZteIWpRLPhzMDiSwFcSsuDAVAAAIQgAAENrQAeng2dPOgchCAwMoFpiKRV0bCTKiFihKdLppmY2hWgoDyRtGO4HK2PHiUk6T54ZBQyHaEuigsoDjk7JsXk6k0z9/9UxG9no7M3BoZO/DA7r2eifPZNO90LyHsMU1elpuPHmvyO+2ZFA2W0zSdZZm9e3c6HY4PHNiefuN6v85xpcwKK7agpyjPMMpo+unJdJfHYRfwi2DFsigAAhCAAAQ2sAB+z23gxkHVIACBFQtkMtkX3xos+Jp4lqNgRg41UE9OfGCAkrNRL0epP0cOhWgxUC2fK0Y71u7ybQ3DCLCm2+2iPaqqhiOR+SvhKAUlHLGyHezv6Rw4/1ba7qBkbrXHPHQzJhV7z8MHu9tbKdUbrX06ODQ8ORWm2UE+r/dD+7r/2/mhGbtv/n2XZEMdV1SCW+B8kuAWOan4+LSe6UxOabCZAsdZSwlhgwAEIAABCGxGAQQ8m7FV8UwQgEBRgMKVV/quh2U/DUizEqwxjKnpkscf3LsvNzWpa6ogO9wdncFde3lJCvddUXPZwI7dlSmhTV33ijzNdKHLKYyxSzKFRHMiAxrbZpckup3b7T7e3fKTwQmVlhAVhJpiHlrhJ5Pa62C721ooU5vH7aZydu/a/uyPX4rG4gG/r6Wx4ene9D8NRBXZS+mul9GwFOpQeNPiFJudImXhTitaQtHDmqKZJg3MG07m/RLX6Za2e+UmpyQK3FqMoFtGtXEJBCAAAQhAYLUEEPCsliTKgQAENpxA3+CtmwonBlzlxXPigzedLS3+3m1aNmtoOidRZ4edIg2KJJoOHKKleKYvnaf1QCn3QClrM02pkQVKGs1SCdQNsmf39guXr1Q+J0258Qd83V0dxdFiJqWotovCqZsjU7yDdXpuL2O6UKJqinYUJZiLHzm4u7TCT6meDru9u7Pjat/1E8eP0p4HejqPx9IvJPOMaF/SlBu6LXXkdLvtrS6J4pwb8WyioGt3JimVJgaZNm00Y7sSzbrF5C6f45EmV7tHpiF0G64tUSEIQAACEIDAcgUwhmG5crgOAhDY2AKpVOrseITzBkpRBA3Zys9ElHTa29ltY1je6ZK8Xo6SqhUDFfofdeyEdj9g9/qmLrxZSMWtIV7UA2IYEn83g/VDh/YfPrC/mFrASjCg6YYkSe9+4kRzc2MJg8Ke1qam9z+0720BqTk9zUYmtGRCV1Wra4YpFljaKMQybWoqEUxOPbG7x+V2l0Myqz42G6V9i8xE4/GEteYPx53Y3d3N5OietZNTXBOQ+aNNHp+dvxhJn4+kozkKdkwr+Xbxi+pipV5gbPR49CKl6GemU//9eviVsUReVWu/Ec6EAAQgAAEIbHAB7nd+53c2eBVRPQhsVgH6jEubruu0RExnZ+dmfcz79VyvXrk2Jnp4Sutc3GjtnZm+y76ebZLHW/y+2vAwhpEDQQowYteu8Xa76HIZhUKvg2sOBkpnS5K4Y1u3wyFTq8l2uae78/3vffLow4cpjlEVhRbkKd2Lcj03BQPbm0O9PmfIpnKZRD6VUJSCYVqxBTW6lsvak5HDHuGxvTv8Xm9ltFMqgcaWZXP5iclwR3srHaUhcy6b3jcd00V7LSnbKIDZ5pW3eR39ifzNRFYxjFKEUyq86r+l4IdiosFkPq+Z7U5B5NHPU5UKOyGwBIGRkRH6swj9cGApG8mdbQnX41QIQGA1BDCkbTUUUQYEILDBBIbGxq/lDDF4ezAbddckhwY4WRY8XjWdsno0eIFW0bG6cWZHPhRduFrbeNk+09dHaQxkn0/irfk5pY2Oejzup9/9xDsef1RTNYkCEZEmxtgu3ei/MBY+1NG0p7eLYhorOjJNjuMDPl/Q59tjGJlsNhJPjEUTM9kEnd/okHZs2xbwekvxz3w8q5NnR++PX/hpMpHyeq2JPbs6Ww9OzpzOq1Tt+edX7qFrJZalwWxnp5JZzQp1at/oZJrbQ0v0UIz0nk6fR6ZnX8r1td8JZ0IAAhCAAATWS+AevzjXqxq4DwQgAIFVE6DulzeHJ01P6HbPCcOoqWR6ejLY2blDjQXdTkPXY7nMdEpN8DLn9s0JeyhXm90fbDx4KNJ3pTA97mw7VlmzUpkOWbbJdxO60VixqDNwcjzaHPAF/f5yjw29KA5mY1wul9vl6m5rpTwKtIPCEdprHaza0VS8n8she1zO5196tb2thWKe9taWx7Z3vHVuKMX7Fs9eQAFKQTeuR7NUvyVFO6XHLMY35tnpFFXt6e6Ay24tQIQNAhCAAAQgUL8CCHjqt+1QcwhAoLrA6NT0lMnzgpWZzUpIYJrRgZuSL7DLIz15cG9p4BntzOZyA2MT56YmUq4AZSmojD0o5hEczsYDhyPnzly6eDXk98uyvRzG0F3pNc0RiiSSPreL+nBcssQlMqrdNRmJ0snzR8vdjnysiTzWzMlimDP/rNuPQ3VOpzM/efnVU6ffjCcStFcQxK6O1ne947EDXuGnGcVKAXevrTxd6F4nLnj8jXCa0ru9p8tPaRgWPAkHIAABCEAAAhteAEkLNnwToYIQgMASBa6MThkumqjD0AQpJZVKDt8yNK3J53p4WyeNB6OJ+/RF0YbD4di/Y9sH9m3ryMe0ZHzO2C0rWOL43m3d1Lvyby/8NBaPUxxSqgi9oMVMv3Wu7wfD0ZNvDVCnjUu2c5rKOt1nJqKjE6kQ6BsAACAASURBVJPlM5dYcet0ujaXy3/zX370g2dfiEataIc2RVGu3xj4b//wbS084dWylGB7GSUv9RLqfjo9lTw1kdR0fanX4nwIQAACEIDAxhFAwLNx2gI1gQAEVkFgYjo8opiCKBWS8Vsvv3Dtu98Y+slz+Xh8l1f2+2alB6CQhiIfv8/37sN7D8uGOTOha9rtXGrFFGaUiM0rcscfeWjX9t4XXjo5Nn47kqFoY2hqJuMOiaGmiGaj+TkOSRJMjSbO5AMtL/eP0J6FYp47k5Zv/7fqA7/+xvnTZ96kQ+ydrAFWRgGOpW6f06+dlWOTNmM9IhB6TBqq9/J44lo0vcjQu6qPgJ0QgAAEIACBjSOAIW0bpy1QEwhAYBUE+sYmNaeP1/Xxs2eifZdtlBnJZotdv2p7cHcxncDcgWQU9kiS/dgDu9smJ88NT04ZnMaLNvqiHp5sqq3RRWmhd+3c5nI5T7/+5t49u3bv6LWGw6kawzuosCxvH5kKdzU3UmxC0/1psFmMd9LAtu2djso7FeMfU1XUTC6nKCpFU5QDjZZDpXxutOhNKX1T6eHT2eyps+d0XSvO85m10QqnyVSGuX7NcIY4X4PNXEKW6uXJUq3Tqv78SKLJIYWct/PdLa8oXAUBCEAAAhC4XwIIeO6XPO4LAQisvkAulxvJKlzArlCWgvERK9opDv7SNOPWrdHjjxypektrgBvDdLa2toRC8VQqnsokcwVaNaeprbWp4Xbmg7bW5ifffvzlk2dSqfRDh/bxVjRCEY3JujzXwuGOhgBndYKYTCnx9OywiqIdmvBzfWR8MJ5OmKzOWj94WdOw2wyJsTl4xinwlA/N55ADbldkJjY1GS5N9alSW8YWn4kIE2NOX6jK0TXYRfHiaKbw2mTyvV1WdLYGd0CREIAABCAAgbUVQMCztr4oHQIQWE+B8XA4ZXJicb2LOXNy7HaJdhYn71Tf6BAvCA3BYGMwWDrDCmjunE8vfD7fU088/sqp11985VTaxuoOjuUFmsBDm2S3N4hsslCg5AeSkg15WipvMzA8enJ4MiF5OG8zLfJTqphhMzOmmTbNGbqeJsmkVVssKRnRwsRoXlEWSTnA8aLdRos35TlaYmjhx6n+kMvba9oogcEDAUeP3zlHdXnl4SoIQAACEIDAegrMHTKxnvfGvSAAAQisrkD/2KRpd1IYIDhdvq5eG83R0U1DN4JB/6ED+2q5V2liz+3EBrPDCTpEudqeePxRWnJ0YmBohxJvTE61ZSOPbu8URelwT4cnFTYi4weCLu+dtUQpxBocGXtuaCodaBXcHhq6VuwHomCHvqgziNJG04g5CmFE3unifUE92Jx1317kdKHa0sQjSnFty6UXOmHV91P0lVL0N8Np6ihb9cJRIAQgAAEIQGCtBdDDs9bCKB8CEFgnAUplNpLI8O1tVrcMyzYfeZi321OTY9St86F3HOvt7like6fGKlq9QBx37OiDXq/n+vX+Rx480NralMkXJsMRn8f9gQM7FU2jLNXljAVUpdM3BjhO0lNxm8e/2F2s4IqSaLOUDpsTRD2fWygTG8My7mCwkM3rukGvFytz9Y7R38auxXLhbKHF41i9UlESBCAAAQhAYD0EEPCshzLuAQEIrINAZGYmw0t2nrMCG4pMZEfzw480qKo9OvHA7h00S2dVBoCVxqrt3b3D6XScfuP8vtyuc9duXr7eHxSFYDCwvbfb8cBuikOi8URLYwOdvLMhsK2zvW947Fw6ybu9i9eBem8kj1cOBlMjIwxXJZihRxNdLnsg5NDDCSXPyZQ4YcFBeqtoTnhxRe9P5lvcdiuR3Wps05n8yfE4daYda/G1uuXVKBJlQAACEIAABKoIIOCpgoJdEIBAPQpMzsRM2XU3sKFIgCbtpBIPNgc8HvfKu3cqTai07o42WRL//hvf7R8cUVRlmqbimLaTp9/cs7O3YceOmOB4SlF3dnceObAvn89bGQ40tQZVk5OkwK496YkJm1kt97Rh83b10oA9Zz4Xj6VtMk2qWY+Ah2pOjzyYzB9tMkRhFQKeeE75v88MvTadopIP3Ir974/2NrmQBa6GNwhOgQAEIACBpQuswu+tpd8UV0AAAhBYfYHpZJq1OyoDGy0aPuxm923rXoteEIozJqcjt4bHVFWhkWWURZrn6SeqceXq9QtXb9h8wasTYVqutG9g6F/evHKuINAUnVp6Y6j+/t7twZ27i2PcZimZuuFsbA7t3Uej3SSHk9UK65CZurIGkaxK+bhXpeUuTiffDFvRDm2Xopkzk7eXWF2VwlEIBCAAAQhAoFIAPTx4P0AAAptBgPpXYorGeYqJy2jNUFpCNB4+FnQe2rmNUgUs1AmyeN62xV1UVTt5+g1aNqeYovruxvJsamS4EItOeL3/fHlA4e2sp4nn+VqiHasU02QFsfXYcYbno9f69EKhFPcwHOtq6+g4/jaJMiIYBi+JEssUdGP+cj2LV3vZR2mAXVrTc6ruW3YRFRcmFVW90yr033i+lu6v1bgxyoAABCAAga0ngIBn67U5nhgCm1GAho3leYkSnpmUlS0ZD2mZhzqbetvbSgvalGfDlPt/KNTRdF1VVQpFaH2ZpQ54o8sz2ezkVJitllvAUJV8LOpq7TAcLuuHbHFO0RLUixOQ2o+f8PduSw4PF1IJTpS0fLblyCOOhiaKdqgoSu4miUJeU2y8vLTCl1CP2acyNt20KTRuDxsEIAABCECgrgQQ8NRVc6GyEIDAAgKZbF5hOF3TpMTUIw2e3V37ZLs1J4RCGopMCqrKMqwsS7STYzndNN+6dvPUmTfCkajX7T565OCBfXupo2ZJn+UZa7ZQlbwCdypIh5YY51Q+GiWtZjl3eyf16tgMysbGhq9ctOkVWaEZRpQks6DYbJjuv8B7ArshAAEIQAACRQEEPHgjQAACm0Egr+SNRLSJNR7b1dnc0ECPRHHOwNjEjZlETGc0hpb7tMmmRsuDbm8KJmZi//jN78XjSVoGh7KEXb124yPPPP2240eXBOF2OdramsYpu8CcsIdyYouS3R9YUmlVTy515hQDK4aSGahW8oO7myiJTDZTvPuSIrWqt6php2mjvHFitdxxNVyMUyAAAQhAAAL3TQABz32jx40hAIFVFBBY9v37dzQ3NQmiSOPTBkbGTg9PxgQn62qkZAKlqCBLecY0tX94ZuSlF5KJVDHHgI3GpBXyhZ+8dHL/A7v8Pt89x7ZZY+E0NTwTHY8lBZ+PBpsZmkohSXmj1NLe7m2Ohsbb4coqPaQgyYoV3tzZTJMTBJtBmdzWJdop3sYj8A5hI/7WoKg1QzO4GMYhbsTqrdJbAMVAAAIQgMAyBfC7YZlwuAwCENhoAj6fj6IdqhVFOz++NW0EWmiR0DvzZ6yogKISXpAUyZnN5diKJTtp2ZxYPBGLJQMU8Cz6VBTtRGair90YHNU4g1Jgd+1uP85NnD2jZTMU51BQwPCCb3t329FHKMq6Z+y06K3mHuRkuxaLVpbJssWnW6+Nxue1OgWnYPWVbagtp2rfuTn94+GozLG/sLv5sfZV6FvbUA+41MrQm4QiQBq3aSVKt9HMK5O6CEvvd3rbU4Rv/VsZoy/1BjgfAhCAQL0JIOCptxZDfSEAgQUEKBqhI9lslvp2KNqh5GxV4gFr9VFrJgx9EqycfyMKvCgKi0cPVH48kXiubzDuDtECp1Q6lRPau9/Z0DR25hQrCILD5Wpt9XZ0ccVeJqua1hqdK5jJc+dJqTS6I3Ul0Xwea4Rbqf7Wh9bbt1mAZDV32zlmd8BhxZAbaYvnlS9eGvvB4IxSlJg5P9rtsbd5HKtbR0U3zozHrkczO/yOY20BYXZevoXupWh6sqDGCirloEsoWkoxMqpGae40k9HL4xAZG0XGPGOzCxxNL/PLQofL3ul10Pq5CxU7Z39B02M5ZTJbmMoqlDd8pqClCmpG1QuGjSpAKmrxjSpabxuT8nPQKkqU388nCb0+eX/I1e11chXBf403xWkQgAAE6ksAAU99tRdqCwEILCZAn+kmItEYT5/LKQ10xRT/4kX0l20lmYjeeEvy+tRUqhz0aLrR1BAK+O+Rb9kqfCYaE52i3X53uBrDSD6/q7nF39Mr6YohyRSWmDTlRhBMVTHSSVO08w5aHnTuZoVnpb+yWwHR3KrOPZvmBQkiJS0wdI3lhfLRhxpc3V3B9enmcfDMDp/jdp3n1u/+fD+eyv3VuZFXJxJlvomMciuRXfWA57nByF+eG8kahswyv3lY/9D2poUemELTmZxyNZK6HMncTOQmM0pS0XMavTNMozLCXuB66n7xChwFlu/vCR5v80sLhz2qbtyMpU9PJC5G0iOpQoLuotPbaPGYfdZdKRYPSsKJNu9HdzR1UctigwAEILB5BRDwbN62xZNBYEsKRFIZm0T52WZ/8iv2haRHRxK3hrw9PaFde0dPn0wMDhiaQrHJwQd2dHa0nbtw+djRBzmOW2goGpXod7uE8Zhp3A2N6EOsmknbOM5jKu/Z1U5/bo8k01PpmbGkTTHZYx5WZ9WLsWnT1zArVGCYAs0iGhuh9YLcLe32YPBebWVaM5EYm0Hp5ijyKYY4NG5pV8B5uNVfpSPrXsUt8/hGGgfVF0n953Mjl6MV85psNgfPeqS7AeEyH3P2ZZph/HQ8RtEO7c4Z5k9HY+/rDonVQpG0on6vP0zdTSPpgjonDK0h2qHyKWKJqdqpqeT5cPpdnalP72sNOaX5TxHJFr5yZfyFkVhcpUlcy9zoecIF9dsDkXPh1G8c7Hi0zb/MgnAZBCAAgQ0vgIBnwzcRKggBCNQmQIEKbcmCwsxemob6UnRVid28rmYyDfsPih4PRQidjz+Z2/1APp1idfWJB3p29Xa/9MppWkj0+CMPLRTzUOFNoeDBqcgbyRjvvRNmUOiSSlL0sdPnpJQJ9LG2u83qsbk+dOvZoUhCs7/z0E7b1etv5LK801WKTKg+2Uh4+IXns5EpClpEr7f7He+kDNQLBVqlp2c4jpYi1ZWC4HBSuEM3YkxdEqzU2xuq16W2tlrRWQR1aiz2Xy6MDqdpVda7G2dj3tMV2BlwlXZlVe3FkdhAIreEXo+K0kjYLbC9Hvs2n6NAKxDd2RSNJshUKZJu91/Pj3x/MKovpZtlIYicYXxvKBLLK//rw90hx6yYh4bJ/dWbw8+PxRe6dqn7h1KFz5299Yes7eEWxDxLxcP5EIBAfQgg4KmPdkItIQCBxQUoijB066/d1qwFmr1zZ6NhbIVEfObaVdHtbTr0kJVLoPinenrhau+gj8Z01cXweHdr/u0nHnnpldcWj3kYhn1w57bo+SuDuQwvO0sBTD4e7XVwB3s7qVj6LEz/0mmtDQ3uifiNnLE3HG0OeJlh+nhKH6FLPTNG5MqlzPQEQ5MnOEZJxKcvX3C1tFE30SJ9NfQgnCDqhYIV3pTuoun2rZeUjPpbfjQQ+btLYzOKVvmWoMFmP7+r6eN7Wsp9L/90bfIrVyfn9rQs/jaad1SwMe0ukQaMzTsyaweFQN+6Mf2DodWJdspFvzKZbL4y8RsPdpZnDdGNvnl96oV50Q6942ud9GO9S23WJKKKbSqvfuHieKdbbnIVQ2hsEIAABDaXAAKezdWeeBoIbFUB6pahGS4U9tD0HVPXrOChGBikRm4lh4e9Pb3OltZi+oC7f5svRT4USMRl77n+W287+MDjjz3y01fPvPra648+coSmd8//Qz7toURwj+3Znrl4bao4r0ZLxR3p5Lvf8U6Hw1E+n15IouhkbQmDm0kmmwI+1rj76ZxCrHwsdjdpAsvmojHq85GDIcp8QA1olTOvD4Fm/HCSmJmeoh4egTqLGIY3NZe84KqjhmHQsqpT4Qi9KKVzKL01qHD6tqujzef10J54QY3k1cpPvwREk9pbnTSF3lqkaDCeTRXHTXlFrsvruL/ZvWjG/9evTfzDW1PpyjVYaaihwH96f+v7exvKgQFlqT41nlhhtENPTTP+B2f3I1X9f9jNeIYCnsrbCQyz2y/vCThdNQeleU2/EcvSID2ajVO+y49uzRxr9Tzadjv1XH88+72BSOWULzfPnmj1HmnyOCn1QZWepyr1peYcShaeH40NJvPlK/ri2R8OzfzqvrYqF2AXBCAAgToXQMBT5w2I6kMAAkUBnucp2fTNwVu8pjFGgbHL1BlC+Qm0fL7x4CHB5V5wVRzKkeVw982ke6em25ubHj/xyCsnX3/11OuPPfrwQjGPx+1+av/OC4MjOSXjczATjT5KeED5BCiQoHy/xU4ckwIwPpfZ43Lu6Nyhqgot1lNKI0YHWY6TvJ7UGJ1YDDRoVJvbnRofTQwPik63HAxKXj9nt1Np5ciHXudmwjNv9WUmJ6YuvBna/UDjwQcdpuGSq/w9Xtf1kdHxs29eunazP5WeNcWlWDUbpaT7lV/8aCngeSuWuRDLVabpoj//dzvFVmvqCEPpxb55c3omr1FdH2ly9/iqZF8o8q/HFs8pX7x8NyFb+ZbtTvGzB9tPtAcqgzGRYxscgo3iynXZXhiOUidJ+VYUhPzK3pYP9Da4lzihiFJsvzQa+8LFsek7pVFo99yt6MPNPr6YGu7VsXjljQIi/5uH2p7sCvEVvZo1PvFTXcE/f3P4tSkakHl7oxGAP9MbCsweQVdjaTgNAhCAwEYWQMCzkVsHdYMABGoVsNulS1f6/uWHLzQ1BpwHHsobtui1q5Q/rWnX3vIwtoXLMnVP8FT/yLsdssfjOXH86Kunziwe83g9nscP7KU45Nbw6NDA0Mmr11OKyjOs3yG1BXyNAT8lqT7+wE6fxyNJEs9zfp6ZoARrxZzO1KfU8MCBbDici4bpW2dzc/ujJ6h7R8tmaXRcemqKMitwkiT7g3IgQBneaPYO5UUYfvnF1NgwjYLTU8rEG69zTmdTa4M8r4dncmr6lZNnL/ddS2eyFABU9u2UHp86bXxeb2PI6jFQdJ0+PVMINCdJXKuD4gXr4zVlPIsWrL4piszaXVVmzy9MuspHxpK5/3Jh5NXxuwnZSjfY43P89uGO/Y1Wb1XlRl09n9jTmtWMkWR+eVWhqTrUtUVZCuZcTlZzdlGGgjemUuXTyOojOxo/tqtlGemeZYF/b08DZWD7f94cKfcXXZ7JhLOFFrdMKTHOh+/eiO74c9sbnupumN/KtTxym0f+zIG2oVdyk7nbodpoOj+YyCLgqUUP50AAAvUlgICnvtoLtYUABKoLUIAxPDKeSKby+UIje0F1eP3btjuaWqzxYfOGh80vglbOmXYEf3z5xnsP7aHBaY89eifmOfawIFQf21ackWPeHBwaMKWozcnI1mlmXnlzYKpxYHRfS7CnvVUQrAV5KEc2JUoeo9VOne5SfeTGpt73vj89OU59Qq7mVurhsU5zOt0ul7utgzITFOLx7EwkMzVh41jZF6DX6clRinao5tZIPU2L9l0JdD1R+UmXOnbOXbzy/AuvUl5uqlspYpn/pLRn7+4dHo+bXkRyarRAHVOzznJwNJ7Nim0oNLoez2uGjfp/KPtZ+/2b3XE1kvzLc6NzErJRrY81e37rUAetWlP1MXcFXX92fHuqUO5aq3rWgjs106R0z/8yEHl1IlmZh4D2l2Zqla+MWsvg3O3eabIL7+kKLiPaKRf4eLv/u/3hvniutCeWVycyVsBDy/jQYjvl0wIid6LNt7xop1QIddkdanD9aPh2R1jeMMczykMLkuAABCAAgXoVQMBTry2HekMAApUCNIJMtJb7NBQaP6apoe4OtrnVWqazxo3iDdkxoSnXR8YO79pBU4COHjty8tTZl06eOf7oEWtVn3kbfdAcn5x65cpNz6GHWdFOt7bWs6eZP7JzQlXHJ+JtExePbu9qCAYpomgJ+pkb44bDCniskmgukNvrd3tLpdLso9LO0rcML9obmuhL11Q1laZkbtGbN624oxya8LZ8POYROOqF0GkonY2hEl597exPXjqlUJI6lqN7zO2YKBZNNw8Gffv376U+BNquJ7I5zeRLS6jeOaFBFnyS9bw0no3meFC0Q1c1ykLQIZaqt57/UhxYNSEbzZChhGy/fqA9IC9WK4fI09eyK9zude5rcP/Fm7eevRMSVC0qo6jU91I+1OQS5+RVq3rVIjtpIFyH214OeBTdTOSsfHQUfVoB6J3NJfC0Us8i5dzzEEVljdLdZAf0nkmvIM/1PW+HEyAAAQjcL4EV/ay8X5XGfSEAAQjMF2hva6WZM5QSoCEU7PE7r6TT1GdyO8CYf/b8PabByc7rkanL2tiFSJaO65p/dHLqey9dF0WJOnPmXEFhRjyZmvZ0SxGViVmD02ZtDENr/Hxr8mZTIEqdMlSryaSqJ+adNveyud9TkGNygWz3IU2hoVl3+2Io+vnCcMEx3Ve6QNP00cmM2rKXajW3iIrv6RlcTnnqapi5ak18jygG9Ve0uu07As5SjwSFN11OqdQ7NBDPxhWt2JFl6/HK9morzyxyr5UfshKyDUb+7uLchGwOjv3YzsZf3NPiENb8VxjFHj+/s/nsZGpOUrhFno5GNq4wtQNdbqcwtGIziiPr5uTDXqylF6nf7ENz3ta3Y++aL8eJEIAABOpCYM1/W9SFAioJAQhsAoHmpkbZLqfTaUXRDnR3DF3pz8vykgb8sCz7UlS7ODx2J2kvwwiu0RkaWWTFP/M3KpwRXbacalI2r3lbMVTg+ycTxSNWRZjC3aRY805fcIf1udbpo0Fzc7ptEmndVpmTQPbZFszZdrdwGr00UgznSht93h1P5SnaoTVMqZPCI7BtxfFsumFejdIUGJNjbBLH7Fhg2NiClV7xgZym/2PfxD9cm8rMTshG0/Q/tW9WQrYV3+oeBbR77O1uaWZmVhbsyms0WhLpHmXUzeHFA+a6eQxUFAIQgMBsAQQ8eEdAAAKbRKCpKdTUEIwnEg5Z8vu8Bxs8JxMJ3nNnhdAanpL+gh42BIPV7/513UriTFcu/Mf04hC1hQ7T/jkR10Jn3qN21l3u9aG6hqlK8+9C9aE4J5xWqJOHjlLGM3dxDNh0pnArZY1no66FJofY6l7XjAXxvPLFS9UTsv3GwfbHZidkm/9Qq7uHZxhp0d6t+WkMVrcCC5VGrcPNmYC10KnYDwEIQGBrCyDg2drtj6eHwCYScMjywX27cvn83j07KczY3dl+7c0rMd1D/Ta1PCVdouVz+XSS4Wk90tnRhdU7s8xQpZZbr+s5FBfNC42M4vOKDNPjstJh0+u+aJpylNErOrDDJ6/D4LEywiIJ2X7nwY59DXMTsq2r3ka6GQU8Kxw7t5GeBnWBAAQgsIYCCHjWEBdFQwAC6yxwcP+evXt3trW2Ul8NpWzeHfK+mkyzlBtg3kf8ahVjDKUg0Cf80sf88hkMo8dm1OF+M199YFu1ojboPsbhEru2sx7ffBASanIIjcU1WGjVzivRrGXG2Jw8u7fY+bM+24IJ2Zo8v3V4wYRs61M33AUCEIAABOpUAAFPnTYcqg0BCFQR8Hq90ViUUheUclG3hQJ8ZMTGWJ/vTd3Ko8XwNECJqboIKX2853XN45AnlYohatTtMzme+tevq9NjxZxvdd3PY9pYVmzvcT/9MS7YMCfmoe6CbW6J1t8hpZvxDOVBpj06LULqtbesV0LqV0ejf31h9FbaykhW3koJ2X5tf/t9SRNnVWOpnXvWe+Re4w8rnxCvIQABCEBgjQUQ8KwxMIqHAATWUcDpdIbD4UKhIEpWT4WdVv1kzFh4Knb9Gi1lw7CMwx/ybdvmaGiij/5zezkoVbSpyXShUjE93TRz50+pE8OUqNq6pL4365O4cqs/d+l11zuernwU6swJSHyn2047KWP1BZrTY9D8EJvAMgdDLlrEc62fWzXMHwxM/+2FuQnZZI75+Z1NH1+9hGyKpiuU8mwp8YiiG5QvrnYB3koUjg0CEIAABDaQAAKeDdQYqAoEILByAZfLlUgkGhsbqShaM7QwMd5/7qKaiJc6Z5JDQ5FrfU2HDjfuP0S9PZUxj6FrIc5GAY+Z1Mp/0zdVVY9SLulN9QlWnwnbaN2YijCGOr22u6XSRJ2RZK4/cTtdQatT3OFfj/Fszw9HZwpaqmKRGWo+Ssj2yX2tH+htWHnERXHO1UjqzFTyeiwbL8zO+3av9xz1DtJynPc66+7x4iSopURUtReNMyEAAQhAYFkCCHiWxYaLIACBjSrg9/uHh4c1TeN5PpcrTF6/oSTibMWHez2fHT/zmmnozYcfvjtaiT7yp+N7m4Kvj1P3TnpWhLP5Pruas/or6ON5QOC2eayc1tT38cZ0itJR03g2+tx+uMHpWsHCnbW/R4aqRRTv7vKvSrQzEMt8rW/y1ER8TkBVe/VwJgQgAAEI1LXAmg9UqGsdVB4CEKg7AZrA43A4qJOHPsffHLg1OR2pjHasx6EDhj51/lxqdJiWiCw9oKFpTWahu62Z/pxfd4+88grT8jsOgaNyRpP5q7EshTpWNmpZPHBfU6I9OxT76pWxeL7KGke1P/Lpsegfn+x/biSKaKd2NJwJAQhAYJMJIODZZA2Kx4EABGzBYDCZSGi6PjE5pWvVPi7TdPx8Ltx3hTIZWDEPw6jxmTa7MDEZTqbSc1bOWX/Q9Q+5KAa0wkDTpEFfacWagkI9PA82unx2Yf0fv3zHmKp9tW/q/zjVfzmcXF4geiWc/PNzI3OyINzHJ8KtIQABCEDgvghgSNt9YcdNIQCBNRSgwWw0kycajRoLzzWnOCczMT5z4y2qh5rJOLKp6dZQOpXR9fv5EZ8qQ9GOg+ForZycaaznzCEK8wbj2csRives7p0Wp3iocb1XvKGFgESWSVdMsaEFgs5Mp4ZODvzC7uYP9IaWtBxQqqB+6cr4aMVgOQptW51Ch8tKRjc/guJZhvI0zN8ox8GFmWykUJHKYv5J2AMBCEAAAhtYAAHPBm4cVA0CCq9ehgAAIABJREFUEFiuQENDA83kkSSxPGhtbkmMTaNsbvGYt6PbLsvv6ty1b9cOzbQ9+9ObZja26p08FMZQDHPP5Uvp8/0B3vdRRwe9+Hp2uE9L0SfwGq+d+4BL/L6gaq9MJDLF2Tssyxxv9qxz946DZX9+V+P+kOtrb02eD6crpxlN59W/uTB6OZL65ANt3T5HjU/26ljs3HSqfLJH4D62o/F93UFKb03rdc4fukiR3vx4h94JBU3/w1duRiqKqrECOA0CEIAABDaIAAKeDdIQqAYEILCaAvQ5NRAIOKRRpyxncrnqK6kwNndLm6ujkw+PdrY0ldbnWYvhZFRmAysGWGlUz2bMBXMWl/p2npHb9vFeqkxYLLylWZ/XG1nRz0ojeja78LUrtCOfi+HUW7EsRTvUvbPTaz+4vt07foH/9P7W9xcTslFeuG9cn/zOzQiNSiw/l2Kaz4/Gb8Zzv7q3+R2dodJ6QYs8tarrL4/FlTvNSYv5/LsHWj68o5mjJ1ziRtHRkpfiWeItcDoEIAABCKypAAKeNeVF4RCAwH0TcLvdnZ1tTY3B/sGRKmOVaBFOXuDtDkPVPIzN4ZDnLsuzShWnvpo9vOeTzp4W1nGqEP5ybrAwO0la+T7UBURn7uQ9OvUFmba4qdCLHs75Wdf2ZlY+q0a/mhlMmNqSP7DX8CDRnPbSeELVTfpsL/Ps29t8cjGHwbptT3cHPrS9sdSx5pfFT+3voK6eL1+Z6ItlK0NQmo3zubMjlyKZX9rT0rTocqgzOeVmLFeu//6g8+mehmVEO+smgBtBAAIQgMDaCSBpwdrZomQIQOA+C3R2dDzy0AGPx2nc7Sq4XSXTMBwNjZLPZ+iqR+QEXliLvh2KdrZxrk87e3s5t8xwB0W/l1nwRoKNPSE10GlUxbihvKbM0OXbOVfp2hNiwy/K3cXpPau/jeXUSF4rdX4caXJvD6zH2juVj+GWuMphhBSZPNoW+LPHtn14W8g5e9nTrGF8eyDyR6/2nxqLLrKAKOV2S6t3W/1gg2t98muvVtvMH3G3WiUvXk71vtDFr8FRCEAAAhteAAHPhm8iVBACEFiuAKWofvjIg48/eiQU8pv06bcUK1BPim7wTlfzwcMcLTOqaR67tOqTdqjKFK50cvL/6Ozt5lz0mva8pSUTplq1i4ZO6OacBwRfaarPRS1+S89yNqZfz0wYudLskrfbG39B7rQz7KrHPCZNL7KytNnaXdLbWn3WIK513qo9UpPT/huHu/7gSOc2j72yOnRuXzz7f54e+vKl0Xi++pKgim7qFUGDRxLX+YFWcjvdMJLUvXdno0BU4K0weC2ioCRNXKvYnALGfayk6XAtBCCwQQUQ8GzQhkG1IACBVRFwOp2PPXr06ace797exbvdLC9xdru7o7P7iXe5O7qsVF0Moxl6tc/bK7o/BTDNrP1Tzm07eA+9pvxgF9XYf88O5RcYz0YhzWNiyMdYn8tzpvbTQli1GXTVkJ6hkWwzRoFe08/rp+zNH7a3izYa8rbKG0U7Dp59V4efRpStctErKI6m9DzZ3fCfjm97uitgnz39hkbgFZNWD1yerpK0mlKuVUZtGaVadvIVVGxNL53KFAYS2fItJI4NyBJ9q9J6uvq8zsoVVGU8lbsQzty9EcM0ygh4VgCKSyEAgY0qgB9tG7VlUC8IQGCVBGhZnh29alop2FXRJtKQMU7yeDjRblLsQV0bLJelsU+r+sdzKjfEip9y9u7jfaVo5y0t8aXMwHQxbpn/WBS9tLDSESlQ6t65pqWoL6h0Jp19Vo1J2cFPOrd5GPo7P/N+uY1mAX0nP6ZZad9WbaMA4fF27+6ga9VKXL2COryOf3+k+2CD+2t9k6OZQrlgsqWk1beSAx/f3fz+3pBc0Tvhk3gnz5UXGz0fTqYLqku6zznHayHJq/rXr01VZtNudoptbivgmR/lrqQrLllQv3p1YiidL9eq0SH01JwEr5ZnwTkQgAAENogAAp4N0hCoBgQgsIYCTc3Nu3O5iSvXs42tgp1CHdpu5z2mvNU5VaMVe1hagXQ1NvpU6mOEX3X0HBb8pWhnQE99MTMwauSqRjt0T4pzjoqBJtZO12o245VCmBKylU+mqOZVZUaysb/s7HUynGBjnpHb86b+g8LE/E/Ay34CWmb0RKv/Pgxmq63GEs99YFvjLr/jK1cnTo4nKGlb+bqpvPr5C6OXImnKw9btuz37KOSQer3yZP52x86FSPY7/dMf29Vyz/RuVaozf7zjonEGvZfyiqZTl9kSNxpcNpbKUz1/dCtWefEjzR5/sYdnTnyrGMZALOOWlCXGvSbdaDiV/8HQzNmpdGUdH2310TDCJdYap0MAAhCoAwEEPHXQSKgiBCCwcoGu7u4Hk+l/G7jK7To4a3Eeli0YNl3X2dmT45d3R/qcSjHJJ5zdj4ghek1BC6WT/n/TAzQybeFoxwqQHhVDpRMG9fR5NTZnSRj6RPuCErYz3C84umkOj8SwH3V0UszzvDK9vHrOuardJby3K0BBxaqUtnaF7Ai4/sPRnn8dCP/DtSlanKd8I9U0fzwauxHPffZg22PtAdov8tzbO/ynp1LUeUff0gkUKQ0l8u9o91Hnz5JqqOpGSrm76ij1B14NJ5td9haXXEr7pulmZfqEa4nCH7xyc154cq97MraCYU5l1Lg6a1ZNq0N8b3eo6sXjGfU/nByotnpQ1dPv7qQ4PKebZFJ5XrtT+pme0Pzg7h5l4TAEIACBehBY2s/9engi1BECEIBAFQH6JHfgwD4aDPbqrRtSey8vCNYEHvpYSitLmtbsCEGkuStL/qt85Z3oYopGPi53vU1spP0UwEwa+S9l+q/pqYWiHTqNuncOCb4u/nZig9cKMzFTrXr+c4Upink+7OgQbSyla/u4s7tgM36qRJb4B/4qOH6Rc4v18evAKfIf3dW8N+j88pXx16dofdK7TXYrnf/ipfFdASd179BDPt7uf344SmPeSg9MH/F/OBz98UhMpJ68JbZzvmIZ1MGU8gcnB7wi/7GdTR/d2UyLtFK0UxmjJDTjQkVG7CrcNe+SWfYXdzf3+qsnzaPZPHSvmgtb7ES3wFH/WM8CN1rsShyDAAQgUA8CqzOEox6eFHWEAAS2ugDFNkcPHXxXd1Pu2oVCJl36Yzb9q9qYVZkLTqPOPmrveKe9iSIQilgiRuHLmf5LWqJq9FJuDJpU9JjUQDmp6Sqa5HPaCmCqhzA0aed7+fF/zY3TC/rE7mGETzh6Hhb8S/z0Xv1tUAr/qh9bk73Vn7GWW1GT7Wvw/Mdj2z65t5lWLK28ZCJTmLwzKcUjCb9+oK3XPWuMFnVrZHQzYyztq9RNVLpRqXtkMqf+0/Wp0dTdpX5qqfmSznGw7C/taX66t2FJVy3j5IDIf+ZA21Nd1fuRllEgLoEABCCw0QQQ8Gy0FkF9IACBtRXYv2f3Rx4+IE8MqNlMKeahTG0rT1pAn4OPi8H3ya2UV4A+y9OyoV/NDLypxhePduiqXZx7N+8ppSt4ozAzYRQWCgVov2ozv5kffTY3QX/Yp2sDrPhLjp5WVlqVmGdt3WeX7pV44c5z0n89SxxmRoV57cKv7Gv7j492Hwg4yr/JRI6x83d/r+0Ouv/gaPe+gHMh0pU8cl4zaKrOSkpY6Fqqbbdb+l8e6vzFPcuadLRQufP2Uw/SI00UOvZ8cFsjVmWdx4MdEIDA5hGojzEMm8cbTwIBCGwAga6uzo94Pc9dvhFmWV52rFaNWjnZbmNLydNo7BwtuVMKYxYpnzp23mZvcDA8nUnnv6pESnkOFrmElpeJm2rpNLoqyIp+Vhoz8gv1Cy1S1H08tL/Bc7jRTXNsqA57/I6jzb5lVIZSLDzc4u/xOiit2fcGwmnNON7q6/TMatAHQm5awPT7/eGfjMTG04X8KqXjozj2eKu3ffa9So8gMoy8rNlQFKjJPNPuth9t9ryj3d/ilhc3oTR0XW4K8Zaco5wCKpfA9XjkB5vcBxo8NEpw8RvhKAQgAIF6F8CPuXpvQdQfAhBYjoDP53vPwd3/dun6hKKwmrry7GQUb7ymzDwo+ruKy4w2stL/7Nr5tczgaTW6UPcCndbDOQ/yNCaNEkwzl9TY4MK5DeghqRuHMiL8nL2d+pFo+Bx9SyWcViOUEaG+oh16Fp8s/m9Hul8Zj2uG+WiLt2X2wLMltSjN2Pm1A+3Hmj0zeeVoi4/SFcy5vMEh/eq+9g/2hgYSufF0PluRgWBJN6o8ucElPdLitwtz70XnHAg5P3OwnbWWTVraxtpMikNoHaQas0d0uqX/67FtjuUsFWryLEtrHCFFwdJaCGdDAAJ1K4CAp26bDhWHAARWJuB1u99/eO/VW6NJ3Ugmk3ZZpjV5FgpO7nkrurBfz3w+ffPfObv38D6KYWjh0V9zbfdlbz1fmK66Zk5psVE/K1LcQinXaLFRpbjY6O17UV7jiu4ICm/o5/UJe8NuzjmsJEtj2K6qye/kRjOmVj3gsZ5m2Q90zyde6QlNLvuHdzavtJTi9fTZ/aGWxfqIaJRhyGmnr1W53eKFUNCyw+/kVinL+SL3ols4RMFRLeha5CocggAEILAFBRDwbMFGxyNDAAK3BWRZfmj3Dlo4ZWZmZnRkxO5y6QbNylhmkECXDejpz6dv/LKj56gYpHiFlgqlOTZ+RvxOYSxvGpXlUsRCvUAPi0GqCgU5N7TkVS1ZGbfwDc18S4et4nMzXX6W4c5WtF7edBq2lqojn8xcVhkeMHOZYjYEbJtToO7mbm3OZsBTQQACG14AAc+GbyJUEAIQWGMBWnK0oaEhEAhMhSOFfH4lAQKFLlNG4e8y/XFDeae9mbcxlKj6GUe7jxX/IXeL5t6UO3AoHDoqBJo5O3Xv0NesxUYNU2hq9Xzol7iQld56zlb5Gdc192DF97qRv3w29dy3Tf3uGjKLnI5DEIAABCAAgc0qsORBxpsVAs8FAQhscQGO40KhkN2+0lFPFNIkTe1ruVvfzI7kTCuLF+150t70P7m2t7JWeEN76H9eRjguWYuN0teInjmnxu9275gm37mNa2iyWoQGY1mnlL6svhprmBpDsy+sL2t/aZt3mo3nxF7KAOe10dA4bBCAAAQgAIEtLIAeni3c+Hh0CEBgbQQoJqEsbd/Kj8YM5ecdXaVZOg8LQY+L/3JmkKb6UPfOAcHbXVxslE5+rRCNmkq584cqxXC3Z8Mb8ZiRy1pRjmljZZn1+k1V0+MzNmvoXfFEX4ARRT0aNhVaT6h4mtvDOot9PxQOrf1MkrUhRKkQgAAEIACBVRNAwLNqlCgIAhCAQFmgGHrYnlemaRjbr9BSOZxMsc1u3vtLjq7Ppa9Raum3SQ2ilWnNDN9ebLQ6Xvb1l3MXTltxi2HYDzzsfvfPGql48ttf1TNWQmdWED3P/DLf3Jb68XfV0SGrO8g03U98wP7Q8WLCA/TtVFet071ozjptOFQbAhC47wIIeO57E6ACEIDAphWgsOesGk2l1V919uzkPfStj6UlNple3knBTykb9RtKdJFVdExNNfM5G8fadMOmqpaUaZr5vJnL0UuD5ucY1ig5UylYeygtG8VSmLSzSd9Quo3Vl5tRY5OS4LEgAAEI1CSAOTw1MeEkCEAAAssToIFq1/TU59PXX1Km3tKS38uNZk39cbHByVh/b0reWWz0XoVTrFTLVj09dS1X4pyVCNTYPCu5BV1r0P/Qy7NCRFwOAQhsSQH08GzJZsdDQwAC6yhAMc+4UfjbdL/AsBTthFhxj+il+9P+y2q8X0tXzt6ZUy+GFxi7XBrSZhME6yitFilJjGa3chcINCzOupoRJIbSLdBr0yzP/1nHR9zSt6JOtYoFk9aRgtp6He+GW0EAAhCoXwEEPPXbdqg5BCBQNwL0wZTWHtWKSdsKph41Cm2sTMncXixMz1psdN4DyUdO2PceLuZmMxmHk+IZ1u31PPMJa4QbbQzDBUIU4bjf+UFTUUqnsR6fNc6N5vNgWxcBlZrCap91uVnFTTha2YlSmttu57dY79vjfhCAAATqRwABT/20FWoKAQjUvwB9ME6Z+v+XGXxICIzqmUtqYpHuHXpc9dZN5dbNUjYCkXJVHz5GU3oojYFZyFsYHO88+nbOH8y/dZEStZVOs+97SHTvrn+qen2CdQt8KENFvRqh3hCAAATWVwABz/p6424QgMCWF6CYZ0jPDugZerF4tENU6vgwhTcMy5uGRuGNnQIepZC/esFMJ61eBUGU9x2hXNXK4DVl6CbDcpSyQGjpsG3fU8zShu0+CPA05vA+3Ba3hAAEIACBBQUQ8CxIgwMQgAAE1kiAPhBzNabbok/PLE9Z2hgbT2uNlurDsqxO03WspUdLiWesxUkp2rFOM+g1Pm+vUbvVVCylykPIU5MUToIABCCwXgIIeNZLGveBAAQgsAwBmg9vaBTt0L+mcbvTxqCZG6Vs1BTkWBvlpaZ9OgU61MODvp1lMOMSCEAAAhDYxAIIeDZx4+LRIACBuhcQe3YyolSanCO0dtLzUNI2x0OPmYWC1UXEcqzbQ307lNhAaO0qncY3tyPmqfuGxwNAAAIQgMDqCSDgWT1LlAQBCEBgtQXE7p1Ce/ftLG28aGVpszvkw4+WQxr6lkaySXsO0yqkpZtbARJN4MHAttVuC5QHAQhAAAJ1KoCAp04bDtWGAAS2hEDm9IuFq2/SXB3TMCiqcT3xtJ6MJ7/390Y2bc3U4QXP0/8D19iceu5b2sQITeShEXDOx56yHzyKTp4t8f7AQ0IAAhCAQA0CCHhqQMIpEIAABO6TgJnNaDPTpSxtYjZl1cLQjdiMbmVpYxhBMDWVpvAYqYQ+Ey4tPGoWcvepsrgtBCAAAQhAYCMKlDL8bMSaoU4QgAAEIEATdSgXm5WQjaG8bnfSr9EL+qKkbdX3IEsb3jgQgAAEIACBuwLo4cG7AQIQgMAGFqCQhqOAp/jHqXJ4Q3voi4Ih2l/caeVBLp3GYPbOBm7NlVYNiyutVBDXQwACW1MAAc/WbHc8NQQgUB8C8qFHrURtVuZpG+cJWEkLXB73+z5i0zTrAViWCzYwPOd8/L1yzlrJlDauoeXOBB509dRHK9dYS003dYQ8NWLhNAhAAAIVAgh48HaAAAQgsPEErM+1VpjDN7fyLW2360c7TZORJHH73rs1thbnMYWubXf3FE8r9vwUX2DbpAK01iwi2k3atngsCEBglQUwh2eVQVEcBCAAgZUKMDZtaszMpGmZnbvD2KhQa97OneFt5XvQh97SgLfyntJpDKtNT+iZlDXVB9taCsg8w1cYB2TBGmG4Bpvfznul0lKzVumtblkU8FfLNYBGkRCAwKYTwM/KTdekeCAIQKDeBVhWGRlI/uDrYtf2YjCzjF4axshlC1fPmfk8Ap61fjvsCrgeafa8PJ4wbLZ2p/REe2CN7tjiln9hV/PX+iZSir7N5/i5nY2UzGKN7oViIQABCGwmAQQ8m6k18SwQgMBmETDNwvXLhetXVvA8xUFx6N5ZgWCNl7ol4d8f6X5sIp5WtMNN3u0+Z40XLvU0Cm+e2dH0UKM7llc7PXLAIS21BJwPAQhAYGsKIODZmu2Op4YABDa8wJyBakuuL/72v2SyZV/gl8WnexuXfXntF1LM0+VzdtV+Ac6EAAQgAAFK8QMECEAAAhBYVGAZI8oWLQ8HIQABCEAAAhBYRwEEPOuIjVtBAAL1JsCwHGN3LGsWzYZ9VJN1uIrL+GCDAAQgAAEIbAkBDGnbEs2Mh4QABJYpwHP2PQeVwWtmPlfME13vm8k43dKu/TaGtZk0xx4bBCAAAQhAYPMLIODZ/G2MJ4QABJYvYJrSzv0em5m/et4s5Os85jEZ2SHve4hWMkW0s/y3BK6EAAQgAIF6E0DAU28thvpCAALrLMCx0t7DFPaYRt13idAIPRvPYTXSdX4H4XYQgAAEIHB/BRDw3F9/3B0CEKgHAdO0cRzD3V3zsR4qvUAd6VmqbWu0Vma1W2EfBCAAAQhAYF0FMG91XblxMwhAYCMLCBzb7NyKa5u0uWV2pVmwN3LDom4QgAAEILClBdDDs6WbHw8PAQhUClAvx8/uaBxO5W/Es+ZmSFFw7+alP3o9EHS+v7fh3qfiDAhAAAIQgEB9CiDgqc92Q60hAIG1Edjud/6nE9vH03nNpJxs1Ud/rc2d70upjMDYWl2SWxLuy+1xUwhAAAIQgMA6CCDgWQdk3AICEKgnAY8k0Fc91Rh1hQAEIAABCEBgYQHM4VnYBkcgAAEIQAACEIAABCAAgToXQMBT5w2I6kMAAhCAAAQgAAEIQAACCwsg4FnYBkcgAAEIQAACEIAABCAAgToXQMBT5w2I6kMAAhCAAAQgAAEIQAACCwsg4FnYBkcgAAEIQAACEIAABCAAgToXQMBT5w2I6kMAAhCAAAQgAAEIQAACCwsg4FnYBkcgAAEIQAACEIAABCAAgToXQMBT5w2I6kMAAhCAAAQgAAEIQAACCwsg4FnYBkcgAAEIQAACEIAABCAAgToXQMBT5w2I6kMAAhCAAAQgAAEIQAACCwsg4FnYBkcgAAEIQAACEIAABCAAgToXQMBT5w2I6kMAAhCAAAQgAAEIQAACCwsg4FnYBkcgAAEIQAACEIAABCAAgToXQMBT5w2I6kMAAhCAAAQgAAEIQAACCwv8/+zdB3gU1cLG8ZtGIBB6770jvShFuorSRIqIBVFUbGBHRUAQuSL2jgoICChFQESRoiBgQRQFpCi9d0INJOF74dw7X26SLUl2Mzu7/318eDYzZ86c85tN3HfPmbMEHtc27EEAAQQQQAABBBBAAAGHCxB4HH4BaT4CCCCAAAIIIIAAAgi4FiDwuLZhDwIIIIAAAggggAACCDhcgMDj8AtI8xFAAAEEEEAAAQQQQMC1AIHHtQ17EEAAAQQQQAABBBBAwOECBB6HX0CajwACCCCAAAIIIIAAAq4FCDyubdiDAAIIIIAAAggggAACDhcg8Dj8AtJ8BBBAAAEEEEAAAQQQcC1A4HFtwx4EEEAAAQQQQAABBBBwuACBx+EXkOYjgAACCCCAAAIIIICAawECj2sb9iCAAAIIIIAAAggggIDDBQg8Dr+ANB8BBBBAAAEEEEAAAQRcCxB4XNuwBwEEEEAAAQQQQAABBBwuQOBx+AWk+QgggAACCCCAAAIIIOBagMDj2oY9CCCAAAIIIIAAAggg4HABAo/DLyDNRwABBBBAAAEEEEAAAdcCBB7XNuxBAAEEEEAAAQQQQAABhwsQeBx+AWk+AggggAACCCCAAAIIuBYg8Li2YQ8CCCCAAAIIIIAAAgg4XIDA4/ALSPMRQAABBBBAAAEEEEDAtQCBx7UNexBAAAEEEEAAAQQQQMDhAgQeh19Amo8AAggggAACCCCAAAKuBQg8rm3YgwACCCCAAAIIIIAAAg4XIPA4/ALSfAQQQAABBBBAAAEEEHAtQOBxbcMeBBBAAAEEEEAAAQQQcLgAgcfhF5DmI4AAAggggAACCCCAgGsBAo9rG/YggAACCCCAAAIIIICAwwUIPA6/gDQfAQQQQAABBBBAAAEEXAsQeFzbsAcBBBBAAAEEEEAAAQQcLkDgcfgFpPkIIIAAAggggAACCCDgWoDA49qGPQgggAACCCCAAAIIIOBwAQKPwy8gzUcAAQQQQAABBBBAAAHXAgQe1zbsQQABBBBAAAEEEEAAAYcLEHgcfgFpPgIIIIAAAggggAACCLgWIPC4tmEPAggggAACCCCAAAIIOFyAwOPwC0jzEUDAyQLnzp0bPXp09erVY2JiSpYsef/99x85csR0aOzYsdqelJTkk/798MMPxYsX37Bhg09qoxIEEEAAAQQcJEDgcdDFoqkIIBBsAjfddNMLL7zQq1evKVOmPP7443Pnzm3WrNmpU6fUT6Wd9u3bh4f75q+00o5qK1iwYLoE+/TpU6dOnXQdQuHkAh9++GFYWNjx48dhQQABBBCwUSDSxnNzagQQQCCUBTTeMn/+/DfffPOBBx4wDu3atatRo8bEiRM11HPd5YevfMqXLz9hwgRf1WZXPYmJiREREXadnfMigAACCDhUwDefHTq08zQbAQQQsFFA89l09sKFC1tt0KjOs88+W6xYMW156qmnkg/IaAioYsWK2bNnb9q0qRk3+Pvvv1Xsvffei4yMXLZsWf369XPkyKEBGc1eS92pr7/+WkMN69at8/IQlVR5nXTt2rV6ojOaOqdNm1a7dm01o0KFCpp0d/HixRTnev/991V+48aNZvvhw4cVUVTS/eFdunTR0JZVlab56RTmRw1/NWnS5M4779SsP4XDFKfbvHnzjTfemC9fvjx58rRt2/bPP/+0Cpw9e3bgwIHCzJ07t3b9/vvv1q4lS5ZcddVVOXPmVA4cMWLEhQsXzK6EhIRhw4aVKVNGZ2/QoMGCBQusQ/LmzatLY/147eWH+bFo0aJDhgx56KGHChQoUKhQoQEDBpw/f167dPnuvvtuPVHzNFZmHcsTBBBAAIEsFiDwZDE4p0MAAQT+I1CzZk3FBgWb5BFF77/1Dj6F0YoVK2699VYV1uBP165dH3vsseQFNO5x22236b31xx9/HB8fr4RgvYN3Ze3xkEqVKik83HDDDVWqVNGTbt26qarx48fffPPNSiazZs3SWZ544gm90U9xih49emTLlk0FzHYNYSkUaaOXh6fZ4J9++unAgQMfffSRlTFMMc39a9GixdGjRydNmvT5559r+t/1119vYqQK9OzZU9uHDh06depU7WrTps2ePXu0XbVdc801JUqUmD59ulLKv//9b6sX/fr1e+mll7RRtZUrV07d/+abb9JsUoqNL7/8sqLduHHjFMzeffddNVUFdFmHDx+uJytXrlSE86YeyiCAAAII+EOAKW3+UKVOBBBAwLOAgsGcOXMUBpo3b67wowhx++23a+mC1EeilMnhAAAgAElEQVTqXbiGHRQeNJijvbGxsffee2/yYp988one+muLhkE0WqLBn2rVqqWux/tDoqOj1SQNm2isQ090oDLS4MGDFXjefvtt/dihQwf9O2bMmIcffljDGlbNGs3QrtmzZz/99NPa+OWXX2ospVSpUl4enmabS5curbubUk9mU5TSPL2GDRtqaEUHaqysbt26GpJq3LjxL7/8Mm/ePOUu5UPtat26tdqghPPII488//zzmjeoSGPOpdGYUaNGvfjii+vXrxejRqj69++vXUo7ui7qstJRmq1KvlHDbhoN09CWwurChQu/++67++67r2rVqrp1SsV0LTRA5LESCiCAAAII+EmAER4/wVItAggg4FlA77z/+OMPxR6FCr3t1hiOBhxSH7ZmzZpOnTqZtKO9RYoUSVGmXr16ZosGLvTk4MGDqSvJ5CGa5KZhFgUeqx4NOiktaPQpRc233HLL6tWrd+3apYEmvftXkFMB7w9P3XIFqtRpR8UU/NTxkSNHapad5o+ZyHfs2DHt0hw/xQ8N+JjaNNnv119/VcPMLmu7ftTtUj/++KNWw1u8eLF+tDqowzUP7bfffjMVpm5V8i2aSajyZosugTf+7itkLwIIIICADwUY4fEhJlUhgAAC6RbQW3mFGT1Onjz55JNPaoZbrVq1zPiJVdehQ4dShxw3Z0p9a42bwmaXx0PUBpU0QxbmEN27oifWOtrWKTp27KihIQ3yKM6dPn26e/fu2uX94R6bahXQ7DUt86DBKGVFzcFTxNK9Omav5rmpDRpDswpriEzPlcE0ES75fVO6k0dDMaaFuXLlUoiyDjEdVFUatvK+VSrpETNdtVEYAQQQQCCTAozwZBKQwxFAAIEMCsyYMUPxxjpYb7U1W0xznzQXK0WNuvM+da7I4FkzepiZNmZyi6lj3759epJ6qWslEC23relkms/WsmVLE9XcH67hkQyEBA0uaXxMN+poxKZy5cpmdMu0TYxxcXGp72WKiopSwtH9NqkZ1EJlIS11YO0yHTQtz1gLU5+FLQgggAACWS9A4Ml6c86IAAIIXBLQDDFNYNPdJhaH3qPrDbfuw0kBpBXDFB6sLyE1b8SzAFH3+ls5RJPulG2sW190dt0So1l2yVdXs5qkyWO6ZV+FzXw2bXd/uMZSdu/ebR3uZQfNZDNrLtnPP/9s1aCbasSltenMFt1BJMNXXnlFP+qeouTLrykvaa02RSNlM+1VCrUqUQd1U5C5/SZFC/fv328Vc/PEfI1SBrKcmzrZhQACCCCQXgGmtKVXjPIIIICAbwTuuOMOLfesL9vRff/KA5o69c477+gtslb6SnECrYempZk1VUyrGuzcudOs/eWbRritRasFKAB8+umnWhhAc8a0gpzWXFYA0GppWutMX5mqOXhmACRFNQoPmvymVGCtOKehFTeHa2aa1teWQ6tWrbSmmUa6rBuW3DRQWUvDYlqhTl9kpC81evXVV1XYfG2rUo3q1KprWo1AvdBSBFu2bDGN0erSWsNAkUwHClODbLpXR81TttHCbrqlR98TqvEiLUKwfPnyr776yjRAteliae1v9cus1m0mvLlpnnbp1Pr3rbfe0uG6gu4LsxcBBBBAwE8CjPD4CZZqEUAAAQ8Cmlult9Razmvy5Mm6V/65557TUsi6gV63vqQ4UnlDb7L15TZaJ0BTxfT1MipgfVONh9NkYrfapsZowetVq1apGi0NpwWXlQG0gpkWyNZazFowIM3qNeqiMZb27dvnz5/fKuDmcK2lphyiEaHevXtrlpqST5rVptioyPHFF1/oTp677rpL60dLRrc/WZPu9KNm1inPdO7cWWNB33//fdmyZVWD1jbQenebNm3SfVNasU2LUFtfE6RV2tRlZSStdKcC6qm1RJtCpgKnrpHWcNMtQClusnLVWiUrrcKnNam1orerMmxHAAEEEPC3QNj27dv9fQ7qRwCBFAKa4qKHptxopo2+OEUTmfTuECUE3AicOHFCd+GbAvremNdee00vG2s2l5sDbdmltQq0DPQbb7zBF27a4s9JA0dAd5rpq291Y5uWJ9H4rX5nA/bXNnDQaAkCPhdgSpvPSakQAQQQ8LHAzJkzBw0a9Mwzz1SsWFH3/GhEQt89GphvmzTeolEXjf9o/Mqsz+ZjC6pDAAEEEEAgnQIEnnSCURwBBBDIcgHN+NKay6+//vq2bdt0W8iwYcMeffTRLG+FVyfU4tq6B0nBTMtS61Ntr46hEAIIIIAAAv4UYEqbP3WpGwEXAkxpcwHDZgQQQCCoBJjSFlSXk844VoBFCxx76Wg4AggggAACCCCAAAIIeBIg8HgSYj8CCCCAAAIIIIAAAgg4VoDA49hLR8MRQAABBBBAAAEEEEDAkwCBx5MQ+xFAAAEEEEAAAQQQQMCxAgQex146Go4AAggggAACCCCAAAKeBAg8noTYjwACCCCAAAIIIIAAAo4VIPA49tLRcAQQQAABBBBAAAEEEPAkQODxJMR+BBBAAAEEEEAAAQQQcKwAgcexl46GI4AAAggggAACCCCAgCcBAo8nIfYjgAACCCCAAAIIIICAYwUIPI69dDQcAQQQQAABBBBAAAEEPAkQeDwJsR8BBBBAAAEEEEAAAQQcK0Dgceylo+EIIIAAAggggAACCCDgSYDA40mI/QgggAACCCCAAAIIIOBYAQKPYy8dDUcAAQQQQAABBBBAAAFPAgQeT0LsRwABBBBAAAEEEEAAAccKEHgce+loOAJuBZKSktzuZycCCCCAwP8I8GeTFwQCwSoQGawdo18IhKxAQkLChQsXEhMTL168mCbCmaRcaW5nIwIIIBAKAjHhp9LsZlhYWERERFRUVGQk747SFGIjAk4V4FfaqVeOdiOQpoDSzvnz55V20tzLRgQQQAABVwL6kEh/Qs1HRWQeV0psR8CJAkxpc+JVo80IuBQwYzsud7MDAQQQQMCtgD4w0h9St0XYiQACDhMg8DjsgtFcBNwIaAI6YztufNiFAAIIeCPAH1JvlCiDgIMECDwOulg0FQEPAuHh4a7u2/FwJLsRQAABBP4rwB9SXgsIBJkAgSfILijdQQABBBBAAAEEEEAAgf8XIPDwakAAAQQQQAABBBBAAIGgFSDwBO2lpWMIIIAAAggggAACCCBA4OE1gAACCCCAAAIIIIAAAkErQOAJ2ktLxxBAAAEEEEAAAQQQQIDAw2sAAQQQQAABBBBAAAEEglaAwBO0l5aOIYBA5gVeHj38n783Z74eakAAAQQQQAABuwQIPHbJc14EbBPYv3/vkKcGWac/fOjg4wPvta01AXnit19/afu2fwKyaTQKAQQQQAABBNInEJm+4pRGAAEE/iug7+YLCwuz18N8P6DPm9H5xp5FihSzt2ucHQEEEEAAAQR8IkDg8QkjlSAQJAI/rVq+8Ov5F86fr1W7brcet4SHh586dXL6lAlbt/5dvHiJnr3vKFio8IrlS9f+tvrcuXPFipcoXaacZnwlJSX9vWVT6TJlb+97b3T27AkJCbNmfLpu7e/Zc+S4odONV9SpLx2NKTVt0fKXn1YlJiR06dZz3749PyxbmitXbPeefSpWrqoCv/y08uuv5l5MSmravGWb9h2SgyYmJs6fO3P1zz+qwhYt2zRr0Vp7hz79aLUaNf/84/dBjz2jVpnyaolK/vzjylyxsZ26dq9WvdbePbvGf/hu1Wo11v72qzb27H37km8XbN68Ud25re89efLm04HLv1+8dNE3OrZhk6uu73ijtkybMqHrTTdXqFg5SK4r3UAAAQQQQCCEBZjSFsIXn64j8L8CJ44fmzdn5gMPPz74uZHKCat/XqX90yaPL1K02PAXxiq3fDZ1ojniwP793Xvd2r3Xbfpx08YNLVu3f2boqHNnz/66+kdt+WreLEWmoSPHKMxMnTLhwoUL5qjz8fGPPfVch45dP530cWRE5LARY5Rt5s2Zob07tm9d8OUX9wwYOPDxZ1b/8uPfmzcmb5oiyu5dO5589vm7731o2XeLN6z/w+zNnj2HzlugYCGr8PdLv921a8fTQ1/odcsd0yZPOHv2jHapX4ouKlm2fIV333qlafNWw0e+rKiz7LtF2rt+3dpVK5Y9NnjoI08OWf3TKu7YSS7PcwQQQAABBIJAgMATBBeRLiDgG4GIyEjNEDtwYF90dPZ77h9Uu059De9s2byx/bUdIyMjlRN27dp57txZnaxSlaqlSpfVRj2vVr1m2XIVcuSIKV+x8tEjh7VFIzAaHomIiKhUpZrGiI4fO2ra1+SqFipWp24DnaXZ1a2jsmWrUbP2kcuHrFn9U/1GTQoXKZo7d56Gja60Io05cM2vP7dtf33OnLkKFS7S/OrWJolp11XNWsbE5Ew+n+3XX35s0+46naVM2fIlSpXa+s8WFdM4Up16DTX0VLNWncKFi1SuWj1bdHTVajWPHD6kvSrZ/76HVY9OXap0mUMH95uT8i8CCCCAAAIIBIcAU9qC4zrSCwR8IKBg0LfffQu/+XLqpPG169bv2Pmmk3EnFE5GDH3Kqv1kXJyrMyl4aO6Z9kZGRc374vM9u3fpuYZ6zG021lFh4Zc+Z4kIj9C/ikNm74kTxzVS9OOK5dqYdDGpZq3ayc9y8mRcvvwFzJb8BQr+vuaX5HuTP487cWLShHFh/7p0Z1FiUqIyW758+a0CymB6mB/VWs1h03NFnYVfz9u4YZ1+PHr0SPWaV7iqnO0IIIAAAggg4EQBAo8TrxptRiBTAhoqOX8+XjPNoqKiVNHp06e0RU80nqM4MeDBx86cOf3J+PdXrvi+fsMmSi/DR41VMrFOuXnTBvenn/XZFN3bowlvOir5cnBujtLoSrv2HVq3uy7NMnnz5tMwkYZ3tFeDSApmaRbTxtx58miunQZtrAKam+eqsNn+w7Il+/bsVq817DPhw3fcF2YvAggggAACCDhOgCltjrtkNBiBzArExuYuXqKk7rTRLS66v0XjGzWvqKNK9+7epVtctCVbNs3/yqHVBRQtNMtrwfwvtA7BwQP7Z8+YmmK4Js2maEBG2+Pjz2kJBP2rEZs0iyXfWLtug5Urlh3Yv08xTEsIbN74P5mqXoPG3y6cr9YeO3pkxfLv9KOrCq+oU++bBXMV2PSfRpnUF1clre1q7aWxqaTEf7Zs2rF9mxn28XgUBRBAAAEEEEDAKQKM8DjlStFOBHwpoAXK5syaPmr4MxqE0YJsnbp0V+26uUV3yLz28ijNTKtctZpZDK33rf00YjP82cdzxMRc26GTNwtA39D5ps+nTVq6eGG9Bo20dNvpU6c8Nl2LCrS7psPH497WKFOlylU1spT8kKtbtTtz+tSYUcO0UUu4KR25qrB12+u0StvLLw5XF7TkWu48eTV+5aqw2d6iZdvJE8eNHDa4XLkKVapV1+pz7suzFwEEEEAAAQScJRC2fft2Z7WY1iIQBAIaJ9FDgwl6Xx4fHx8XF9e0aVOf9OvkyZMe6zmTdGkCGw8EEEAgNAViwj18DiKW2FiXU2fThbZixYrcuXNHR0frBkJ9wKTPjLz52Chdp6AwAgh4FGBKm0ciCiCAAAIIIIAAAggggIBTBQg8Tr1ytBsBBBBAAAEEEEAAAQQ8ChB4PBJRAAEEEEAAAQQQQAABBJwqQOBx6pWj3QgggAACCCCAAAIIIOBRgMDjkYgCCCCAAAIIIIAAAggg4FQBAo9TrxztRgABBBBAAAEEEEAAAY8CBB6PRBRAAAEEEEAAAQQQQAABpwoQeJx65Wg3AggggAACCCCAAAIIeBQg8HgkogACCCCAAAIIIIAAAgg4VYDA49QrR7sRQAABBBBAAAEEEEDAowCBxyMRBRAIRYF77rx59Mgh3vR8xvTJbZrV9aYkZRBAAAEEEEAAgawXiMz6U3JGBBAIJoGOnW9q0+66YOoRfUEAAQQQQACBYBJghCeYriZ9QcArgfPx8Y8PvLdBrXJ1q5fufN3Vf2/eaA6bPWNqk7qVrqpf5YF7blMZs/HJRwYMfvzBe/v1bnd1gxZNaq5Z/dP9/W+9rk0TPd+8cYPKzJsz46ZObfXk0MEDRfOGz539Wc+u17S6qvbN3a47deqkVw2iEAIIIIAAAggg4DcBAo/faKkYgUAV+PD9N3795ccfftmwZv2OMmXLDxk8SC1VXHn4/jvHvvHByl839b/v4cWLFpjmh0dELJg3+8Uxb377/erKlavd2qvTc8+/tGDxjw0aXjnuvTeSdzEiIkI/rvtz7fTZ3yxavubggf2a7RaoBrQLAQQQQAABBEJFgMATKleafiJgCfQfMGjuN8uzZ88RFhbWtv11//y9Wbt+XLmsQIFCTZu30vMr6tSvW6+RVf6q5i3z5S+gHytVqVa3fqMiRYtdfl51797dqVV79r5dGxV+qte8YtfOHakLsAUBBBBAAAEEEMhKAe7hyUptzoVAQAjs2rn9pVFDt239W4En7sTxpKQkNevIkcP58uW32legQEHrea5csea5YkzOnLms50mJian7Exub22wMCwtPs0DqQ9iCAAIIIIAAAgj4T4ARHv/ZUjMCASqgm3Dy5ss//9uVmpn22FNDTSuVdo4dO2q1+MCBfQHaepqFAAIIIIAAAgikR4DAkx4tyiIQFAKHDx28onZdDdcc2L9v8sQPz549c/HixUZXNjt0cP/3S79VFzW9bd2fvwdFX+kEAggggAACCIS6AIEn1F8B9D8EBYYMHz323yOaN64x6IF+I//9WkxMzu6d2xUrVmLMa+89+lD/ejXKTPz4/c5deyamNWMtBLnoMgIIIIAAAgg4WiBs+/btju4AjUfAiQIaUdFDN88oVMTHx8fFxTVt2tQnHTl50vNK0GeS/nMfjk/OSCUIIICAswRiwk95bHBs7H/uXfRY0n2BFStW5M6dOzo6WoPq4eHhunNSD/eHsBcBBHwuwAiPz0mpEAEEEEAAAQQQQAABBAJFgMATKFeCdiCAAAIIIIAAAggggIDPBQg8PielQgQQQAABBBBAAAEEEAgUAQJPoFwJ2oEAAggggAACCCCAAAI+FyDw+JyUChFAAAEEEEAAAQQQQCBQBAg8gXIlaAcCCCCAAAIIIIAAAgj4XIDA43NSKkQAAQQQQAABBBBAAIFAESDwBMqVoB0IIIAAAggggAACCCDgcwECj89JqRABBBBAAAEEEEAAAQQCRYDAEyhXgnYggAACCCCAAAIIIICAzwUIPD4npUIEEEAAAQQQQAABBBAIFAECT6BcCdqBAAIIIIAAAggggAACPhcg8PiclAoRQAABBBBAAAEEEEAgUAQIPIFyJWgHAggggAACCCCAAAII+Fwg0uc1UiECCNgoEBsb6/Hsnkt4rIICCCCAgIMF+Cvo4ItH0xHIgAAjPBlA4xAEEEAAAQQQQAABBBBwhgCBxxnXiVYigAACCCCAAAIIIIBABgQIPBlA4xAEEEAAAQQQQAABBBBwhgCBxxnXiVYigAACCCCAAAIIIIBABgQIPBlA4xAEEEAAAQQQQAABBBBwhgCBxxnXiVYigAACCCCAAAIIIIBABgQIPBlA4xAEHCCQlJTkgFbSRAQQQCBgBPizGTCXgoYg4GMBvofHx6BUh4DtAgkJCRcuXEhMTLx48WKajTmTlCvN7WxEAAEE7BKICT9l16mt84aFhUVERERFRUVG8u7I9qtBAxDwpQC/0r7UpC4EbBdQ2jl//rzSju0toQEIIICAswT0IZH+hJqPisg8zrp2tBYB9wJMaXPvw14EHCZgxnYc1miaiwACCASMgD4w0h/SgGkODUEAAR8IEHh8gEgVCASIgCagM7YTINeCZiCAgHMF+EPq3GtHyxFIU4DAkyYLGxFwpEB4eLir+3Yc2R8ajQACCNghwB9SO9Q5JwJ+FCDw+BGXqhFAAAEEEEAAAQQQQMBeAQKPvf6cHQEEEEAAAQQQQAABBPwoQODxIy5VI4AAAggggAACCCCAgL0CBB57/Tk7AggggAACCCCAAAII+FGAwONHXKpGAAEEEEAAAQQQQAABewUIPPb6c3YEEEAAAQQQQAABBBDwowCBx4+4VI0AAukS2L9/7/NDnkjXIRRGAAEEEEAAAQTcC0S6381eBBAIPgF9P+mTjwww/YrOnr10mbKdu/YsUrRY8PWUHiGAAAIIIIAAAgQeXgMIhKjA08+9kCdvvvPn479bsnD8h+889eyIrIfQt/uFhYVl/Xk5IwIIIIAAAgiEjgCBJ3SuNT1F4H8Ewi8/smfP0brNtYsXLjhz5nS2bNGzZny6bu3v2XPkuKHTjVfUqa8Dtm/7Z+ZnU44ePaKBoF639M2TJ+/Jk3HTpozfvm1rvnz5b+zeu3yFSi+OePa2vv1LlCz9x++/Llr41SNPDNGBH73/Zv2GTerUa7hj+9ZZn3965MjhMmXLde95a958+TV17f23XtWPe/fuUe7a+Ne62TOmXTh/vkat2lwkBBBAAAEEEEDAtwLcw+NbT2pDwGEC5+PjV/zwnYZ6YmJyfjVvllLH0JFjuvfsM3XKhAsXLqgz0z+d2P7aG54f9UrBgoVVQFu+nj+ncOGiI158tXXbaz+d9LG2VKxUZes/W/Rk48b1Bw8eOHHiuIZudmzfVqFSlbNnz3z8wdsqOXTEmLJlK0z8+D3tUsnTp0/Vql3vsSefU4HJEz+8vmPXxwYPdZgdzUUAAQQQQAABJwgwwuOEq0QbEfCDwMhhg1VrtujoEiVL3dHvXj1v1qK1xnYiIiIqVammwZ/jx44WKlwkMjLy0KGDiQkJnbr2iI8/p2JRUVGKNBrnqVu/UYWKlbWlUuWqf6xd0/zqNtv++bvJlc00YlO6TLncefLExub+7defCxUuXLtuAxVr077DiuXfHTiwT89z5YrV+I+e/PnHb4ULFzGjSU1btFr/51o/9JUqEUAAAQQQQCB0BQg8oXvt6XmICzw77EUN7CRHiIyKmvfF53t279JGDfWYoZi+dw34cu7MF4Y/rRloXbr1+leu2Os73rhg/hdvvDI6d+7cHW7oqkoqVq46d/bn+/buLlSocK0r6v6wfOnFpKTKVaqpHuWifPkLmLMoROXJm/fE8WPJz3sqWYEQvyJ0HwEEEEAAAQT8IcCUNn+oUicCjhSY9dmUQoWKDHzsGd2EEx2dXX3QrDaN6tzW954hz/+7cNFic2ZN18ZDhw5cd0NX5SWN2EyaME5rvmm4Jlds7PJlS6pUq1G2fMWdO7b/vWWTUpAK6z4fjRQZDpU8cfy4CifXyRWbW9PbHOlFoxFAAAEEEEDACQIEHidcJdqIQJYIaDRG51HC+WnVcv2bdDEpMTHhrdfH/PP3Zk1sU1C5kHDprh6tQLBs6bd6ogUMEhITzECQZrX9+vOPVarW0Iw4jQWtX/dHhQqXZrtVrlL98KFDmreWmJj43eJvlIuKlyiVvDc6cN8ejSrtUD1a8yBLOspJEEDAqQL6SzJt2rSNGzc6tQO0GwEE7BBgSpsd6pwTgYAUuKHzTZ9Pm7R08cJ6DRppTbbTp04VLVq8b7/7ZkyfHBd3olix4t173aaG97n97k8nfbRk8Te5c+e55bZ+SjjaqNt+FHIKFiqs59Wq1zoZd0Lf8KPn+rffPQ9onbdpUyZcvlnovhTrUGuZuJtv7auRIhWuUOlSRuKBAAIIuBLYt2/fpk2bFHh69epVteqlYWQ9zp49u3379pMnT+pJdHS0ZtuWKlUqNvZ/BpNdVch2BBAIBYEw/Y0IhX7SRwQCSkCjGXpoipc+rYyPj4+Li2vatKlPWqj/5Xus50xSLo9lKIAAAghkpUBMuLdTW5V2NMijtpnMc/jw4ffff//cuUtLqiR/lCxZslGjRrVr19bdgxnoiK/y0ooVKxTAFMP02ZBaok98+PKxDFwODkEgkwIZ+SuQyVNyOAIIIIAAAgggkDEBDez07NlTx5q5bQULFuzTp48SRYradu/ePWvWrHfffXfPnj0ZOxFHIYBA0AgwpS1oLiUdQQABBBBAICQEzDhJQkKCMo8Z5+nfv78yj4ZlTp069ddffy1ZsuTMmTOy2L9//4cfftilSxcN9YQEDZ1EAIG0BBjhSUuFbQgggAACCCAQkALbtm1TzlHaUeusNQwKFy6cJ08ezRnT/LHGjRsPGDAgX77/LLuvkjNnzly/fn1A9oZGIYBAVggQeLJCmXMggAACCCCAQOYFdJui0o5yTvKqrHXbNJ4zadKkvXv3Kvxo5Me6W0b3TCrzHDlyJPMNoAYEEHCiAIHHiVeNNiOAAAIIIBCKAnPmzDFz1UzntRrbLbfcomBjMk/RokVbtWo1depUTWwrXrx4+fLlLSN9q9jcuXNDkYw+I4DAv/5F4OFVgAACCCCAAAIOENi6davWpE7e0NKlS1eqVKlFixbW3DYtztajRw+VVDFlnuSFtXHnzp0O6CdNRAABXwsQeHwtSn0IIIAAAggg4AeBFDPZdAbzPWC5cl1aat/KPBr2qVmzZprnZ0noNFnYiEDQCxB4gv4S00EEEEAAAQSCQUCDORrASd4T3a6jH6tVqxYTE6MnVuYx372TYkFqHa4sFAwQ9AEBBNIpQOBJJxjFEUAAAQQQQMAmAS0wbUZ1zPn/+ecfLVSgEZ7bbrtNYSYqKkrrE1hrGLRu3dr6fp7s2bN37NjRplZzWgQQsFkgYuDAgTY3gdMjEKoC+h+zHvpIMj4+XjPRfcJw/vx5j/VcuJjNYxkKIIAAAlkpEBXm+W+X2qNso/Wm9U07Vtu0SnWNGjX09aP169e/+uqrNQS07vJDCxhUrFixTJkyWpBaf2n1XaUpRofc9y71N5m6L+9q765du1RVZGSkBp3M1wcxrc6VFdsR8J8Agcd/ttSMgAcBAo8HIHYjgEDICHgZeOShJKNVp7ds2aI/ofpRi7atXbs2W7Zs+gYejfBo/Ofo0aMHDx7csGGDlXmqVKlStWrVdFkSeNLFRWEEAl2mXWQAACAASURBVFwgbPv27QHeRJqHQPAJmKiTlJRkhnfi4uKaNm3qk27qSyo81nMm6dINvjwQQACBwBGICT+Vrsbs3r179uzZCjZujlL40bfxpDfqmApjY2Pd1Oz9rhUrViiJKT6pMdYgj/eHUxIBBHwiwAiPTxipBIGMCNg1wnPwyMmPP3hr755dVarV0OSKTRvXT54wLjw8okTJS9Pqliz6eu7sz0qULJUnT94UP+oLy6dNGf/jquXVqteKisp27OgRn9STETuOQQCB4BLwfoTH9FspomHDhnnz5tWnPKk/6NFfNt3So+1mbpsmvKVXixGe9IpRHoFAFmCEJ5CvDm0LWgF7R3jaXXP9T6uWC3f02Le7duvV8IrycXEn9OnjouVrjhw+dFOnttpVrFiJn//YqmLJf3x1zMhXXhqhvZ269vhg/LTO113tk3qC9jLTMQQQ8FogvSM8yStWsNGtMidOnND9kFquTYMzunVHT3Srz/Tp01UyA+M8jPB4fekoiIADBCId0EaaiAACPhXYtnWLqW/L5o2HDx1U2tGPmly39Z8tCjxm1759e06djNOWNH/csunSHcO+qsennaMyBBAIOQGFk+rVq6futparVtTRom169OvXjzWpUxOxBYEQEWBKW4hcaLoZiAJ2TWnLU7Dkyh++r1ixyojRr5YrX/HIkcMKMG3bdxj46NOVqlRb/fOq48eODnr82VZtry1fsXLyH8uWr7Dsu0XZoqNfHPNmuQqVChYq7JN6AvHa0CYEEMhagfROafOydZrMVrx4cU3Hbdy4sflyHi8PZEqbl1AUQ8ARAkxpc8RlopHBJmDvlDYWLQi21xP9QcD5ApmZ0uaP3jOlzR+q1ImAXQJ88ahd8pwXAQQQQAABBBBAAAEE/C5A4PE7MSdAAAEEEEAAAQQQQAABuwQIPHbJc14EEEAAAQQQQAABBBDwuwCBx+/EnAABBBBAAAEEEEAAAQTsEiDw2CXPeRFAAAEEEEAAAQQQQMDvAgQevxNzAgQQQAABBBBAAAEEELBLgMBjlzznRQABBBBAAAEEEEAAAb8LEHj8TswJEEAAAQQQQAABBBBAwC4BAo9d8pwXAQQQQAABBBBAAAEE/C5A4PE7MSdAAAEEEEAAAQQQQAABuwQIPHbJc14EEEAAAQQQQAABBBDwuwCBx+/EnAABBBBAAAEEEEAAAQTsEiDw2CXPeRFAAAEEEEAAAQQQQMDvAgQevxNzAgQQQAABBBBAAAEEELBLgMBjlzznRQABBBBAAAEEEEAAAb8LEHj8TswJEEAAAQQQQAABBBBAwC4BAo9d8pwXAQQQQAABBBBAAAEE/C4Q6fczcAIEEMhCgdjYWI9n81zCYxUUQAABBHwswF8mH4NSHQIIWAKM8PBiQAABBBBAAAEEEEAAgaAVIPAE7aWlYwgggAACCCCAAAIIIEDg4TWAAAIIIIAAAggggAACQStA4AnaS0vHEEAAAQQQQAABBBBAgMDDawABBBBAAAEEEEAAAQSCVoDAE7SXlo4hgAACCCCAAAIIIIAAgYfXAAIIIIAAAggggAACCAStAIEnaC8tHUMAAQQQQAABBBBAAAECD68BBBBAAAEEEEAAAQQQCFoBAk/QXlo6hgACCCCAAAIIIIAAApEQIIBAyApcvHjRTd/DwsLc7GUXAggggAACCCDgCAECjyMuE41EwMcCJupYgSd58kmRc4g9PqanOgQQQAABBBDIWgECT9Z6czYE7BZIHnX03DzUKLPdxBv9S+yx+0JxfgQQQAABBBDwjQCBxzeO1IKAIwSstGNyTlJSUvh/HybhaLs26t/ExETtsfKPtjDU44hLTCMRQAABBBBAIIUAgYeXBAKhImClHUUaPRRgoqKiUo/kRERESESFExISrESkYmSeUHmh0E8EEEAAAQSCS4BV2oLretIbBFwIpEg7Gr1JnXaSH2rikIqZdGQd7qJ6NiOAAAIIIIAAAgEqwAhPgF4YmoWAzwXMdDUzaBMZ6dXvvoqtW7du1apVyae3JW+YtufJk6dkyZLVqlXLmTOn922eNm3azTffbMoXLly4efPmY8eOLVOmjPc1+LbkY489pp5+/fXXvq2W2hBAAAEEEEDAdgFGeGy/BDQAAb8LKOqYh9KOTuZl2jHNqlmzZsWKFXVgmoM82n7s2LE///xzxowZmzdvTldPsmXL9tflx/Tp0w8ePHjttddeuHAhXTVQGIFgFWjbtq1GWZM/HnjggSzu7A8//GA1QDNdS5cuPXToUM10zeJmeH86ffLSrFkzlddfkscff7x48eL58uXr2rXrvn37vK+EkgggEJQCXn3KG5Q9p1MIhJqAEouWIoiOjk5vxxs2bKgwo8EcNwcq+axYsUIFKleu7KZY8l16L1W1alVt0b/KPCVKlPjuu+/atWvn5eEBUsyMmAVIY2hGMAnoN2748OFWj/Rr6KfeKdhoiPXVV18dOHBg6lO0atWqRYsW+tOxePHi559/XoHnhRdeSF0soLa8+OKLL7/8crdu3RSB3n777fj4+K+++iqgWkhjEEAgiwXcvYPJ4qZwOgQQ8IdA8uEdsyRbes+SK1cuxRhXgzzJa9Pkt9OnT6e3fpUvVqxYoUKFtm3bpudnzpzp379/3rx59YnysGHD9E5LGzXl7IYbbrjtttvUGBWeMGHCkiVLqlSpoh+vueaa/fv3m5P+888/7du318bq1avPnDnTbGzQoMEjjzxy9dVXZ8+evUaNGr/++utrr71WpEiR/Pnz33vvvWbUSyXPnj2r+jUxT9Fr/PjxVi/0RlBvmwoUKHDLLbccPXpU27/88svY2FjVqUYuXLjQKnnq1CmlOM3NU8N0LrVEHy3369dP7VEN48aNc1OntYsnCBgBvZaeTfbQ69wbGfP74k1JL8u0bt1av4YjRoxYvnx5rVq1FCQCZCTWTU+3bt3apk2bzz//XL/pHTp00N8K69fcy15TDAEEgkyAwBNkF5TuIJC2gLmBR2+h0t7taauyh5nS5r6g3lVoipr7MmnuVVRQlihYsKD23n777Tt27NCnzp988smHlx/mkG+++aZp06bKVDfddNM999yjvPHBBx8sWLBAMUkfPKuMspbe5dSpU+f3339/8skne/fuvWHDBnOsRpAGDx6sMSidQmWWLl2q23V0uIKTJuOZMno/p/l7K1euvOuuu5RSNm7cqO36ePiNN96YMmXKsmXL9u7de//995vCarAeGpJSk1L0aO7cuZMmTZo3b55uCtKtTYo6ps4BAwbs2bPHTZ0p6uFHBFIL6Nfk1ltvVdLWQ78pJ06cUBm9VvWr3adPH+V8vb/XFr0IK1SooDLK8C1bttQL21SlDKDnJvnPmTNHGxUJNLyjJ4MGDdI8utRntLZoVpuqOn/+vOKEwsYzzzyj17Y+INAsMv3GmWK7du3q0qWL7usrWrSofln0IYK265CHH35YW9QefWyhw02D9dGA9h46dEgfxJjnhw8fVkeGDBmi7V729LPPPtO9f/rwQr9fVhLT7/WiRYvMn7vjx49rWDvDf/rcgLALAQQcJEDgcdDFoqkIZFzABB6z5HQGatG6AmakyOOxu3fv9lgmRQHdBXTfffdpCEW38Wzfvl0jM3q/ordlenelOTYKG6a8hmiUc/QZ86hRo/QW6qmnntIWvVfT2z4N2qiM3szlyJHjpZde0k1H2qjZcVoawRyr+lV5/fr1NVKk94jvv/9+3bp1FZx0uDlWxfT8iSeeqF27tuYRaVBo4sSJ2qjPszU9RifS0NCYMWN0CvOmSmvcvfPOOwpXGupJ0R1N+GnUqJHOrlUZ9CZPtV1xxRXPPfec3tX98ccfbupMUQ8/IvB3soc09DvYqVMnvcXXyOSdd96pXw29zi0l/Vi+fHklCuXqHj16aKRUMUMR4vvvvzdl9JGBtusVq9ekMsCNN96oF3/Hjh31C6UCqtB8cOCG/cCBA9qrTw30ItdR+g165ZVX9DvbuXNnM4Si0KV4r4133323fkEUilRehd98880HH3xw9OjR+tBBR2kWq8Zp9eGF9n777bfqlz650HOzRZPovOypTq1xV51alevTDd0KmKLx+rhEH1Xo15/A4+aysguBUBDgHp5QuMr0MdQFzOCMPpTNcODRpCy9q9Dhqsr9WwfzkbM34ppYr0+aVVJPypUrN3/+/JiYGH1UrFNUqlTJ1KAbBjT3zDy31lowGcMMB2mXPmM28+h07JYtW9RUU17VKkR5eayKKSxZza5Xr54+h9Znw3pHpTeCGvPRLjVMhibRKb24WvsheTutRqq86lc7XdUpAevsPEFAAnqxWb8I5uWnPKDAoAlmWjxAW/RKUwhfv369+b2+4447zFTMkSNH6sWvAVKlbr1olf+Np0ZR9LujSZj6V2OYGrZVAlGGNyM8+ijhqquuSi2vkRbFLjVGQ6CzZ89u0qSJfq00XVMfGSgsqbwmlKpJ+n3RidauXat7jfQro78SWjPA/DJqY+7cufXhhX5VS5UqpZFP1aaPMxRFdLhimMZnVLl+O3788UetZXLllVd62VOziIIGVM3Qk86YvP2yUtTRiK7HIJe612xBAIEgEyDwBNkFpTsIpC1g3YGT9m4vtuqdk8k8XpT1qoje2ZiZMHqXpnller9lDtNnz9YMGW1xlSvSPIcmmH300UfWrtTDL2kelXqj3pCZlKhdejulYR+rjKbx6C1m6kPStSV1nek6nMKhIKCQrKmYyXuq5KAfTT7RE42EKPCsWbPGrGege89MYcV+PdFKA/pXwcNK8jrcGpNUFNdvnI71KKl72PQwxfSLYEY+9USxSqOsGk0y89Y0w1NltJScxnOU066//vqePXuaBKVb8jSAo4ln1113ncaCNMqqhKbGT506VVPgFMB0p5IGVzXRVIFHgUoN9r6n6qBZmU1/T8wHKFaPNAalvwCzZs3SLo/dpAACCAS3AFPagvv60jsE/l9A7+AzvKTsyZMnrQDg3lTT990XsPbqnYpmtuihj2n1gfTrr7+uXbrpRc81TKRPi/XQuIc1wuOxWh2rO4j0ts8cq+lk3h+rys37NnOW3377TZXolgNVokEeU6H+VYWazOaxJW4K+KNON6djl3MF9Aui2V/WQx0xSyxa6yWaWWSp791XAR1rFbMEdHjyjTo89bGpuXr16qVRII3t6GMITYEzyzAqn2ju6EMPPaShGP1rHaUUpLEaBRvdIKRPH5THtEu3FWm+mbKQfj27d++uWXnaqMCjfzW5VANEikYqrDHeX375RWM13vdUwck8UjdbW7QmtW5h0uBSmnvZiAACISVA4Ampy01nQ1fAzEPTrS8ZIzDLoLmfzGZq1gBIek+hmWx6n6QPhnX7stY30zwZ3Zmgt026s1lvtvR9Gl5WqNn8SiO6pVtzZn766afGjRtbCxJ4U4POqBk+us1GAUzv7fr27aujdHatT6V7gbQ0glqot2VeBj83Z/RHnW5Ox66gEdCNZOqLXqimR1rYQ0+soVGrmxpg0avULBOvVKObecwuHa4XthmK0Y1zGqg0x5rfaxOfUlvpKIUuLUWgUR1rTqyWqNavqu6p06cM1hisZnsq1egmN92xo1lwika6GU8V6gWv8pr2tnr1as120wrR+k3Xxwea3qaSusNNU9EUijTsqQ9WTBDyvqf6EMesTaIup1g+bvLkyVqSIXWP2IIAAiEowJS2ELzodDnkBMwbGn24q8ETpYsM9F+jHOazYfeZR2X0BigD9euDWC2Gpjv73333Xc2Z0WfGuvda72A0MSb5V5G4r1k3DGjtNR2rJQf04a5uvNF3Dro/JPleBS0lJcUbHas3aub2Cd14oDeIWhFOdzKoWt0X4V7Am9P5o05vzksZpwsow2sARJ8O6HYXDc5oUFTLaWgpDrOioNU73cyju1aU/7VygJK/srrJD1q6UHFCt98ovWjQ5ty5c1qZTUdp/QD9++mnn+qVb3K+RyilHY3haEqbfkm1RIHKK3hompwGgjRQo2XWlLKUf3Qi7dLtPQo2GrbVeKlCmsZgzb1t6otCjoaDVEaBR83TGJSmtOlHL3uq1kpDn4/od0q/+1q0IPldTxo40oCqBpE8docCCCAQ9AJheh8T9J2kgwgEmoDeJehhppQohMTFxaVe3dhXbbbOpRPpA1TdcJzeSVl6p6LbbDSxXh/lmrf7rt70qxfef/GorzpIPQgEn4BWiNai56nnoOo9vVYk0yCJfhkV0ZV5lFIUePRBg5ZE07t/Q6FlqZUBjhw5ontmNCKkaV3mrhit5KZPELTsu35PNeSir+Y05TUyo5Cvr9zRgRam+UJSfQSge2xSCCvM6AMFDSIp+Si3aDkErR2n6WoaNdLScFqoTR+sKMmoeVqQQAt1KFkpIGkERgsY6o4gjeqoQv1V0YCPbt0x09jKXn6o1+ZcXvZUo7iPPvqo/kbpIxKNXynhmIEvVaKbnXR2s/p2ivZn5Y9Skr+ynMbHzGxDV38/s7JVnAuBUBMg8ITaFae/ASGQ9YFHZ9S7DX0wrJSlr/hMl4LeXekLPc3/sF0FHv2PXGsrkXbSBUthBPwkoBllmjOmyvUrr3EVrVT2xRdf+OlcVOtegMDj3oe9CGSNAFPassaZsyBgm4D1aaI+X9TYjiZo6XNfa71mj83SbcSbNm0ytzunTjvKOVqlQPft6ANmrTnrsTYKIICAvwV0x52GUDSfU6u3aY0y/cprkpu/T0r9CCCAQCALEHgC+erQNgR8KaBwosCj6KKJbcm/38bNOfQ9gxoO0g02mqCipV0VeMzDzSHsQgABewU0pKN7ZjTNTGmnQoUKmqtm7qWxt1WcHQEEELBRgCltNuJz6tAVyMopbUbZnFE3OpuJbco82q43Rq7WMNA9x2ZlNn2RhYZulJQ0QETaCd2XLD1HAIEMCTClLUNsHISAjwUY4fExKNUhELACiitmVVkTcjS5X3PVlGR0m6/uezYblXO0Xq1uMlYu0kZFHW230k7Ado2GIYAAAggggAACrgQIPK5k2I5AUAko7WiQx2QeMzlN4UdfTK7Yo1t6du7cab7CQtlGIUfrO2vdWPPN5cnTjg4PKhQ6gwACCCCAAAIhIEDgCYGLTBcRuCyQPPNYyUe39GjSmqa6ma8d1H0+Zm0D5RwTdcw6quZwIBFAAAEEEEAAAccJEHgcd8loMAIZF7Ayj2KMyTYaxlHaMV8KpHpNvDHfF6Hn2mJGdRjbyTg6RyKAAAIIIICArQIEHlv5OTkCWS6QPLqY2KNvMDTDO6YtJufoOVEnyy8OJ0QAAQQQQAAB3wsQeHxvSo0IBL5AihEbs5hBimYzqhP415EWIoAAAggggIBHAQKPRyIKIBC0AkSaoL20dAwBBBBAAAEE/itwaY4+DwQQQAABBBBAAAEEEEAgKAUIPEF5WekUAggggAACCCCAAAIIXBIg8PA6QAABBBBAAAEEEEAAgaAVIPAE7aWlYwgggAACCCCAAAIIIEDg4TWAAAIIIIAAAggggAACQStA4AnaS0vHEEAAAQQQQAABBBBAgMDDawABBBBAAAEEEEAAAQSCVoDAE7SXlo4hgAACCCCAAAIIIIAAgYfXAAIIIIAAAggggAACCAStAIEnaC8tHUMAAQQQQAABBBBAAAECD68BBBBAAAEEEEAAAQQQCFoBAk/QXlo6hgACCCCAAAIIIIAAAgQeXgMIIIAAAggggAACCCAQtAIEnqC9tHQMAQQQQAABBBBAAAEECDy8BhBAAAEEEEAAAQQQQCBoBSKDtmd0DAEEEEAgnQIXL15M5xEBWjwsLCxAW0azEEAAAQSyXIDAk+XknBABBBAIMIHkOScIMo/SjtULkk+AvdZoDgIIIGCDAIHHBnROiQACCASIgAkGqf8NkOZlrBkm5CSPOsSejElyFAIIIBAcAgSe4LiO9AIBBBBIt4CVc5KSkvTcPFSLNTyS7hoD4AAr7eiJHuHh4fpXPSLzBMDFoQkIIICAPQIEHnvcOSsCCCBgr4BJNSbq6N/ExERtMT+qYQ7NPFbaMTknIiJCfTGxh8xj7+uNsyOAAAI2ChB4bMTn1AgggIA9AibPmCEdRR09XnrtvflfLzl95ow9DfL1WXPGxFx/besnBt6rzKOHSTtkHl8zUx8CCCDgDAECjzOuE61EAAEEfCtgxnM0pJOQkKC08/ns+b6t397alNw+m/Wl+qjMY4Z9zJiPva3i7AgggAACtgjwPTy2sHNSBBBAwH4B5QGN7Zw/f/6rb5ba3xo/tED9Uu/MbD0/VE+VCCCAAALOECDwOOM60UoEEEDAtwJmPptGeC5cuBA0M9lSEKlf6p21JINvAakNAQQQQMApAgQep1wp2okAAgj4TMC6h0ejH4oEPqs38CpS76wRHtPrwGsjLUIAAQQQ8K8Agce/vtSOAAIIBJqAlXbUMHMnT6C10IftSbHuHJnHh7ZUhQACCDhFgMDjlCtFOxFAAAEfC1iz2nxcbyBVx3y2QLoatAUBBBCwR4DAY487Z0UAAQQQQAABBBBAAIEsECDwZAEyp0AAAQQQQAABBBBAAAF7BAg89rhzVgQQQAABBBBAAAEEEMgCAQJPFiBzCgQQQAABBBBAAAEEELBHgMBjjztnRQABBBBAAAEEEEAAgSwQIPBkATKnQAABBIJN4N5+fTasXlKvTq0UHYuMjHzw3r6L5k1d88OCzz55t2XzK5MXKFu65FtjR/z8/ZerlswZ99ZLVStXNHtLlyqh2oY9PUg/qk49n/zh69aBsbG5tGXsqCHBhkh/EEAAAQSyRIDAkyXMnAQBBBAIDYGXX3jmvrtu3X/g4Nyvvi2QP9/br4y8tl1L0/VCBQtM/uiNZlc2+vrbpTO/+Kp61UqTPnyteLEiacIo9lgHplmAjQgggAACCHgpQODxEopiCCCAAAIeBBo3rNu+zdVz5i/sc9fDw0a90v3Wew8eOvL0Yw9EREToyP59e+fPl/eJZ194buTYl994v/+DT+aMiel3Wy9XlT76YP9s2aJc7WU7AggggAACXgoQeLyEohgCCCCAgAeB9q1bqMS4CVNNuaPHjs+e93XBAvnr1a6pLS2aNTly9Ni3S5ebvev/2qxolJCQkGalm7ZsLVG86B23dE9zLxsRQAABBBDwXiDS+6KURAABBBBAwI1AuTKlEhMTt+/YaZXZum2HnpcpXXL1b3+UKFZ07boNFy9etPYOHjraVW3fLPru7Nlzd/ftPWvu1/Hnz7sqxnYEEEAAAQQ8CjDC45GIAggggAACXgnkypXz5KnTSUn/H2lOxJ3UkblyxkRFRYaHh50+fcZUpLltGvnRf3riqurRr7wdkyPHwwPudFWA7QgggAACCHgjwAiPN0qUQQABBBDwLKA8E5srp4KNlXny5I7VYUpBFy4k6D/zo7ZoATezXMGBg4dbdeiRZtV/rPtr/teLu3a8bt5Xi9IswEYEEEAAAQS8EWCExxslyiCAAAIIeBbYsWu31icoW7qUVbRsmUvPtV0z2Xbu2qPlp7VutbZoMlv/h57au++A+0rHvjnu/PnzTwy6z30x9iKAAAIIIOBGgMDjBoddCCCAAALpEFi4eJlKWwuv6ftzuna89vCRo7+tXa/ti75brhGeHjfeoOe/rFn7w8qfz5w96772AwcPfTxpuhawdl+MvQgggAACCLgRYEqbGxx2IYAAAgi4E+h4Xdv6dS6twKbHvgOHvlywaNHSH7p2urZY0cJb/tnWomnjokUKaR1qrWSgAh9NnNahfetnHn+wXp2a23fsrlShXPmyZX5bu87dCf71rw8nTu3WuUORwgXdF2MvAggggAACrgQIPK5k2I4AAggg4EGgZ7eOVok1a9cp8Dz69PP33317xw7t6tSusXXbzoFPDvt2yX/WoT51+szNdz4w6P67Wja/sm3L5vpy0gmTP3v/48nuz3HuXPyrb40b/fxg98XYiwACCCCAgCuBsO3bt7vax3YEEPCTgO5n0CMpKUmffMfHx8fFxTVt2tRP56JaBFIIWC8/fQfOuXPnTpw4cV23vsGqtGDm+Dx58mTPnl33DoVrOYXLj2DtLP0KQIEVK1bkzp07Ojpat7fxCgzAC0STQkSAe3hC5ELTTQQQQAABBBBAAAEEQlGAwBOKV50+I4AAAggggAACCCAQIgIEnhC50HQTAQQQQAABBBBAAIFQFCDwhOJVp88IIIAAAggggAACCISIAIEnRC403UQAAQQQQAABBBBAIBQFCDyheNXpMwIIIIAAAggggAACISJA4AmRC003EUAAAQQQQAABBBAIRQECTyhedfqMAAIIIIAAAggggECICBB4QuRC000EEEAgpYD5Fs7g/iLOUOhjyuvKzwgggAAC/ytA4OEVgQACCISWgEk41r96kjMmJigJ1C8TeNS75L0Oys7SKQQQQAABVwIEHlcybEcAAQSCVsB69x8eHh4ZGdm21VVB2VX1S71TH0k7QXl96RQCCCDgpUCkl+UohgACCCAQTALWXC/lgTt6d0tMTFq6bNXpM2eDo485Y3K0anGl+mXSjjXOExy9oxcIIIAAAukSIPCki4vCCCCAQPAIKAZoACQ6Ojp79ux9enRq37LJ2bNnExMTrR5evHjRKb01YzimtRERETly5ChcuLD6pd6pj8n3OqVHtBMBBBBAwFcCBB5fSVIPAggg4CQBZQCNfqjF2bJly5Url35UPIiPj1fIcVDOSS1uBnNMisuZM6d6p/xjzWpLXZ4tCCCAAAJBL0DgCfpLTAcRQACBlAJKBUo1JhtERUWZoR7FAw3vmLTj0MxjRnL0r0KOBnaUdszwjrU9JQQ/I4AAAgiEgACBJwQuMl1EAAEEUgmYzGPd4qKEkJSU5Oi0Y7poZRt1zTxIO6kuPhsQQACB0BIg8ITW9aa3CCCAgCVgMo/+NcEgCNKO6VryhEPa4QWPAAIIIEDg4TWAAAIIhK6AyQOm/+a5QyezJb+E7bj6IAAAIABJREFUqTsVuheYniOAAAII/OtfBB5eBQgggECoC1gJwdzYEwQcyTNPEHSHLiCAAAIIZEaAwJMZPY5FAAEEgkqAnBBUl5POIIAAAghcFri0JikPBBBAAAEEEEAAAQQQQCAoBQg8QXlZ6RQCCCCAAAIIIIAAAghcEiDw8DpAAAEEEEAAAQQQQACBoBUg8ATtpaVjCCCAAAIIIIAAAgggQODhNYAAAggggAACCCCAAAJBK0DgCdpLS8cQQAABBBBAAAEEEECAwMNrAAEEEEAAAQQQQAABBIJWgMATtJeWjiGAAAIIIIAAAggggACBh9cAAggggAACCCCAAAIIBK0AgSdoLy0dQwABBBBAAAEEEEAAAQIPrwEEEEAAAQQQQAABBBAIWgECT9BeWjqGAAIIIIAAAggggAACBB5eAwgggAACCCCAAAIIIBC0AgSeoL20dAwBBBBAAAEEEEAAAQQIPLwGEEAAAQQQQAABBBBAIGgFCDxBe2npGAIIIIAAAggggAACCBB4eA0ggAACCCCAAAIIIIBA0AoQeIL20tIxBBBAAAEEEEAAAQQQIPDwGkAAAQQQQAABBBBAAIGgFSDwBO2lpWMIIOBcgapVq7Zo0SJ5+4cNG1anTp3A7NGBAwduuummvHnzlipVauzYsYHZSFqFAAIIIBCyAgSekL30dBwBBAJaYPny5Z9++mlAN/G/jbvvvvt27do1b968ESNGPPnkk0uWLMlAsyMjI8MuP6KiopT3Ro0adeHChQzU061bt+bNm2fgQA5BAAEEEAhWAQJPsF5Z+oUAAs4WyJcv3+OPP37q1KkA70ZSUlKBAgVef/11xYw77rjjqquu+v777zPW5nLlyg0dOlSRSX1/5plnhg8fnoF6ihUrpoEmNwe2bdtWg1FuCrALAQQQQCDIBAg8QXZB6Q4CCASJgIZNLl68qDGT1P05c+ZM//799a69dOnSmuqWmJg4a9aswoULm5J//fWXxkm2bNmiH5VGVExjL8kr0dS41157zWxZtGiRCpvnv//+e7NmzXLmzFmpUqUJEyZYh7z66qslS5ZUqrnllluOHj2q7V9++WVsbOwjjzyiyhcuXDhu3LgmTZpouxqs6W25cuVKfjrvn5cvX17dGTlypEa3FH7efvtt74+1Sr711ls+HBmTbQbawCEIIIAAAgElQOAJqMtBYxBAAIH/CChRvPTSS0ommzdvToFy++2379ix44cffvjkk08+vPxo3bq1ooiijkp+9dVX1r9//vnn6dOnW7Zs6Q1rp06dGjRosG7dusGDB999990///yzjlLqeOONN6ZMmbJs2bK9e/fef//9pioNPenx3XffNW3a1Kpchffs2dO7d29vTuemjKa3NWzY8Pjx4yZfbdiwQcMySmKVK1d+9913rQbcfPPN2litWjXFQsW2GTNmaJe6ULZsWVNGSaxixYoqo9oWL16sjUpoenLixAmVF6C2pFl50aJF1a9rrrkmd+7cbtrJLgQQQAABRwgQeBxxmWgkAgiEokCfPn0aNWr08MMPJ+/89u3bZ86cqRGYmjVrKskMHDhQaUTv4+vXr2/mki1YsED3scyfP19HaaikcePGyk4e+ZRedu/efe2112po5c477xw/fnxMTIyOevnll1988cWrr766Ro0aY8aM+fzzz82tNbrT5p133tFgkVW5Bos05qMDS5Qo4fF0HguoMYo9qvzIkSOtWrXauXOnZrjVqlVrwIABc+fO1eFPPfXUtGnT1OCuXbtqQl3qCpcuXapxsCuvvPKDDz44f/684ty+fftkdcUVV6hrs2fPrl69uqvKVdvKlSu1t2/fvqlrZgsCCCCAgLMEIp3VXFqLAAIIhJTAm2++qSRj3uKbjmvimWaOadaZ+TEhIaFIkSJ6rjEQBR5lJI3MaGBH4x4a21HgadeunTdimoemW4ZuvPHGDh06XH/99d27d9cWjbEoXyn/3HXXXapE59UUL0URPQ8PD1cgSV7zQ5cfOtCb06VZ5uzZs3///bcC1Zw5c5Q3evTooVilBHXw4EFtUcBTgFmxYsXEiRPVyI8++kj3Cyn7qaoqVaro9qEUda5du1Zb7rnnHs3TU8hRAjx37py6phl6Gh/r0qWL9irOpa5c0Ui7JLxq1So1IM2mshEBBBBAwEECBB4HXSyaigACISegIRS9ZR80aFDyIBEdHa3YY1mY4KFgo7lkmq+l22nKlCmjAzXkollbCiFeqv373//WTDaFq/fee09rBujY/Pnz69hJkybVrl3bqkT386xfvz5FnfHx8ceOHTMpwsvTpS6mkGMFOa3KrREklTE91UCNVV4ZTIvCKb1o3Mls1KS11LUpvGlOoHJgmzZtFJA0NJR6flqalZuqdE8UaSe1KlsQQAABJwoQeJx41WgzAgiEkIBu4v/ss880oGGmimnoRulCd6Fo5EcKGnLRfC090XCHNmpylxmguOGGGzQ6dPLkSU1pS4GleWLW4m/mWBXQ/T+a7qWbYTQtTflKk8d06/+zzz6ru1kUMDRHzlSiCtOMAcpgmjCWyauikz733HOqRyFNgzZaJkEVmjUVdGOSNXdO8UbjS9oVERHh5oxa0UH350yePFljO5r4p/CzZs0aU6d1VJqVu6mTXQgggAACThTgHh4nXjXajAACISSgYZYXXnjh8OHDps9KAh07dtS6BZqutnHjxl69emkqmnZly5ZNoyK6cUWjGfpRgUejPbrJJ8XEM+2qW7euBm1++uknLTmgkRxTrUY/9J2hWhV627ZtGhrSvDWdSLtUuVKQ7pbRdjVDt/JrYlua+rpVxmpkmgU8btSgir7A9MEHH1Rm+/jjj80aDLp3SAcqy2lmmh66W0nf0qPslyNHDgmYOtNcvFvtUYMfeOAB3dSk2nQXkPmCIIUcLV5nDkyzco/tpAACCCCAgLMECDzOul60FgEEQlFAM83q1atn9Vw3sSi0KNJoSQPlGev7ajSrrUKFClrKTCV114qGODShK7WXQo7WMdNEL4WBzp07mwKKEFq9WutNawSpX79+yjlmEp3GRjTmo4e2KzloXThrGevkNWuCmZqhFd5Sny4DW0aPHq2j9IU8+lf37RQqVEj/DhkyROM/yjy68Ua9ViN1z5Lu83n66acfffTR1GfROJhKanXv6dOnK7BpOEh3AamYvqhH41Ra80D3C6VZeeqq2IIAAggg4GiBMM1VcHQHaDwCThTQZ+R66GNmzUfS27K4uLjka/s6sUe0GYFMCijDaDxKg0umHkURLSqtSKNhKy0/oMSlO3w0mU0xTIvFaUEFjeooB2oxA+U6pSBN+dOXEWnFNi1LrYEm/a9Nv2Ia4dE4j5Yl0K1B+oYfMzFPtWkcSd8XpKlu+rLUNCvXRD6tZ23Wrc5kvzg8xAW0zIaGTzXnU5FbUzH1eUGaHxmEuBLdR8DfAgQefwtTPwJpCBB40kBhEwLpEdAojVZ1M1+3qsEl5ZnffvtNSzWkpw7KIuB3AQKP34k5AQJeCLBogRdIFEEAAQQQCDABzXDT8I4mtin26OtZtYSD1jwIsDbSHAQQQACBgBAg8ATEZaARCCCAAALpEtB9O/v379f0Nq3WoFUctOKC+0Xb0lU5hRFAAAEEgkmAwBNMV5O+IIAAAqEiUKpUKS1FECq9pZ8IIIAAApkQYJW2TOBxKAIIIIAAAggggAACCAS2AIEnsK8PrUMAAQQQQAABBBBAAIFMCBB4MoHHoQgggAACCCCAAAIIIBDYAgSewL4+tA4BBBBAAAEEEEAAAQQyIUDgyQQehyKAAAIIIIAAAggggEBgCxB4Avv60DoEEEAAAQQQQAABBBDIhACBJxN4HIoAAggggAACCCCAAAKBLUDgCezrQ+sQQAABBBBAAAEEEEAgEwIEnkzgcSgCCCCAAAIIIIAAAggEtgCBJ7CvD61DAAEEEEAAAQQQQACBTAgQeDKBx6EIIIAAAggggAACCCAQ2AIEnsC+PrQOAQQQQAABBBBAAAEEMiFA4MkEHocigAACCCCAAAIIIIBAYAsQeAL7+tA6BBBAAAEEEEAAAQQQyIQAgScTeByKAAIIIIAAAggggAACgS1A4Ans60PrEEAAAQQQQAABBBBAIBMCBJ5M4HEoAggggAACCCCAAAIIBLYAgSewrw+tCwGBsMuPEOgoXUQAAQRCToC/8CF3yelwQAoQeALystCokBEw/y/Uv4mJiSHTaTqKAAIIhISA/rBbf+RDosN0EoFAFSDwBOqVoV1BLWD9L9CM7YSHhx8+fDioe0znEEAAgZAT0B92/XlXt1P8zQ85CDqMgN0CBB67rwDnD20B839B/R9x+/btDPKE9muB3iOAQFAJ6E+6/rDrzzuz2oLqutIZZwqE6bfRmS2n1Qg4W+Di5UdSUlJCQsK5c+eOHz+u/ymWLVu2ePHikZGRzu4brUcAAQRCWEB/1ffu3av3V/ojnzdv3uzZs+uvOsknhF8RdN1+Ad5X2X8NaEHICljDO/p/YUxMzMmTJ3/55ZdTp05duHBBQUj/pwxZGTqOAAIIOFFAf9UVbKKionLlypUvX77Y2FiijhOvI20OPgECT/BdU3rkDAH9f1GRxvq/Y44cOfRc/5vMkyePJkKQdpxxFWklAggg8L8C+kseERERHR2tv+oa29FfdTO2o1LahRYCCNgiQOCxhZ2TIvAfARN49EO2bNn0P0X9q7RjhnfIPLxKEEAAAWcJWOP2yjwa29FDT6zA46y+0FoEgkmAwBNMV5O+OEwg+SCP+VBQgYe047CrSHMRQACBZAJW5jFPzL/az/AOLxMEbBQg8NiIz6kRuPS/QDOxzTzRc30WyNgOrwwEEEDAuQIm21hRRx0h7Tj3atLy4BAg8ATHdaQXDhYw/yO0Yo96QuBx8OWk6QggEPICyeMNUSfkXw4ABIQAgScgLgONQMD6n6JJPoAggAACCDhXgJzj3GtHy4NSgMATlJeVTjlYgP9NOvji0XQEEEAAAQQQCDyB8MBrEi1CAAEEEEAAAQQQQAABBHwjQODxjSO1IIAAAggggAACCCCAQAAKEHgC8KLQJAQQQAABBBBAAAEEEPCNAIHHN47UggACCCCAAAIIIIAAAgEoQOAJwItCkxBAAAEEEEAAAQQQQMA3AgQe3zhSCwIIIIAAAggggAACCASgAIEnAC8KTUIAAQQQQAABBBBAAAHfCBB4fONILQgggAACCCCAAAIIIBCAAgSeALwoNAkBBBBAAAEEEEAAAQR8I0Dg8Y0jtSCAAAIIIIAAAggggEAAChB4AvCi0CQEEEAAAQQQQAABBBDwjQCBxzeO1IIAAggggAACCCCAAAIBKEDgCcCLQpMQQMDxAr/88kvZsmXffPNNf/SkY8eOTZs29WHNa9eurVGjxvfff+/DOj1W9cILL7z77rsei7kvYJxFXa5cuSZNmgwZMuTo0aPuD/Hr3tOnT6sxjz76qM7y8ccf161b1972+LWzVI4AAgg4RYDA45QrRTsRQAABXwoojOmt+YYNG1Rpjhw5SpYsmTNnTl+eIAvratas2cCBAxs1ajR16tSuXbseP37czclNRlIacVPGJ7vy5s1bokSJqKgon9RGJQgggAACGRaIzPCRHIgAAgggEBwClStX/uabb5zbl8aNGz/44INqf5cuXe68886XX3555MiRtnfnxssP25tBAxBAAAEEGOHhNYAAAghkncDFixffeecdTb664oor+vXrt3fvXnPub7/9tkWLFrVq1XrkkUd69uzZvn17s33OnDnt2rVTIGnduvWXX37ppqH33Xdf/fr1P/jgA/1bp06dMWPGmMJJSUmvvfaazlilSpXevXtv2bJF2+++++6xY8fqSYcOHTTUs3jxYo32zJgxwxwyZcoUjZlUrVpVoyW//fab2agDb7nllmrVqrVq1Wry5MluWmLjLinJcN68eQkJCWpGaj0N7HTv3l27nn/+eXVHT/744w+BC0epSUlJFyh5+//55x/J6KIISmV07M6dO00BjSMNGjRIp9NDc9hOnjyZouOas6djd+/ere379u276667pKdhqFGjRl24cGHlypXaa12mvn37VqxY0f3YlI2wnBoBBBBwtACBx9GXj8YjgIDDBJQuXnrppTZt2tx7773KEvfcc4/eYe/fv//+++8/e/asRid0y8dPP/1keqUnDz/8cPHixfXWuUCBApq1pfffbjp85MiRL7744vbbby9atOjbb7+tO3NUWG/iFXj0PltjIBs3brztttt0n4lO17lzZ+3VTS833HBD8joVfp555hm9F9e7+WPHjumNuJqkJ7169VI800a973/22WeV0Ny0xMZdCocnTpw4dOhQmnqSf+KJJ9S8Hj16KMYopfTp0+fgwYPDhw+/+uqr33rrrenTp6duvDqr7qv877///thjj6mArpoCjCKoDldVYtfe1AeaLSqsC71q1Sr927ZtW4XSN954Q/mqYMGCS5YsUZnz58//+OOPV155pWbBuaqE7QgggAACGRZgSluG6TgQAQQQSJ+Ahh0++ugjveV9+umndWT27Nk1zrBp0ya9n9Zb3ldeeaV58+Z6c6x33qbeIkWK6M2x3hnnyZOndOnSGojQ/ScVKlRwddbw8PBp06blzp1bIzwKNuvWrdOQwsSJEzW8o3fYOkorEyjAzJw5U3s1nqAtepOt2/23bt1q1akW5s+ff/z48br5pF69eho4WrNmjQooTX344YeKExomWr16tSrR0JOrlti4PV++fDq7Mk+aesotDRs2VAGNX2koLC4uToGwUqVKQtDozaxZsxQ8VCZF+5VqJKaNiqaS2bFjx+HDh4WgCKqHtkdGRr7//vubN2/WTTup+66rpnGk5557ToFWe00Yi4iIuPbaazVWpsGfv//+W3H3uuuuS30sWxBAAAEEMi9A4Mm8ITUggAACXglodpPeiC9atEjBwzpAG7dv364fFWz0b1hYmIKQ2athlp9//llvtXft2nXmzBltNP+6OpmOVdrR3tjYWP2rkRzNv9K/Gt4xhyje6ImCkKsatF1vvhUGzK32ygZ6W6+N5m29ZrhZB5qZWm7qsWuXBqN0ajloZMyjnoppUGXo0KHKKgo/SqTiSt1yhROzsWbNmnoiVWUePUkOq8Aj2DQDj0hV2ByrJ+PGjTO1aWxNgWfp0qXKkwqr11xzTepTswUBBBBAIPMCBJ7MG1IDAggg4JWAAonK6W4QDbNYB2ik5euvv9YuveVNUcuCBQs0/0qBZ/To0du2bRswYIBXp0lWKFu2bPrJqtncoJKYmOimntTNUGHT8gkTJlgrucXExLipxMZdf/31l/Je4cKFvdHTJD3NANT9VJoBqEmDHsesdO+N6VoKWN0ope3m39R9T5NUxZSXNKtNgUeJV9lSDUh9LFsQQAABBDIvkPL/r5mvkRoQQAABBNIU0NLPygm6+1+TqfQGt0GDBtHR0ZqCpflUiiJmLEVvmjW7yRy+YsUKPdHoimam5cqVK8063W/UgIMiigY6TDHNrdITDeDoX5NhUr9H15Q5zbIzN/1r3EOzsDTLSzPZdIjueFGz9dDAiJuZde6b5Ne9CjlaaFvfU6Q5Zq70kndcs/WkrcyjK1KoUKEUKxZYTbUG1lReGzW90ICkgNXdTWn2zlitX7/e7NVCBYMHD9ZzBSFNY9PXH+kloRic5rFsRAABBBDIvAAjPJk3pAYEEEAgbQG9IU7+3ZpaqEAP3atz6623aq0zvdPVugW6t/6mm256/fXXtT7BzTffrC2awGbeT5cvX171agkBDUGY740xOSTtk6W1VXOxtCCbFi146KGH9HZcQzTKV926dVNZjYHoXzVP9+QkP1RrxynkaAxKq8Z99tlnusNEqywoI2ki1lNPPaUIpMCg+1hUrepM65w2bJOz1htQ2+bPn1+qVKnHH39cjXClZzquBdx0Z5TmFqo7Gt5RN7VFvGkOf02aNElDOrrPSgvZaeZhmcsP3RmlJSiUl3SIro62a7m2NGfEKdnWrl1by+JpQqPWYdNdVVq9wDBpVpsqVxuYz2bD64ZTIoBAyAgQeELmUtNRBBDIcoHllx/WaRUStDyaBlW0tIDeoyvVaIlqjcDooffcWsBAqwJoQWoNBJlJUJrMpmXZtMjyn3/+qRyiiW3KQuntxAMPPBAfH//5558vXLhQixkMGzZMaxKokuuvv14LD2iVML1N1137VrVa2VmLwikIaWBHeUBvxzXtSnu1VvWIESO0iIIGqTp16qT2pLcl/isvZI3naJUChTetI2fWLXClp/EZ7VJ00VcPaaECfWOPcovykp4rjaQpLBNpaLKcootZzlt90SXTzT+ffPKJUqVA9NxVB5Vn3nvvPS2Ip3+lp5eBWepN5TVcpsuhm7W0sJ6rw9mOAAIIIJBJgTBzs2wma+FwBBBAAIHMCOhPsd71qgbNntKb4Kuuusq6tT0z1QbysYpVeq+vVeACuZEKnFrJWqHRiii+be2BAweaNm2qoTMtcu3bmqkNAQQQQMASYISHFwMCCCBgs4DWKdYKxZrUpIlPWsBA06LMl2Pa3Cw/n15T5qz16Px8qgCtXqNn+tofDRB16dIlQJtIsxBAAIGgECDwBMVlpBMIIOBkAd0ury++1JCO0o5uDtGkKU1sc3KHvGq7vnTIq3LBW0hf+6PvPNUdVmbSYPB2lJ4hgAACNgswpc3mC8DpEUAAAQQQQAABBBBAwH8CLEvtP1tqRgABBBBAAAEEEEAAAZsFCDw2XwBOjwACCCCAAAIIIIAAAv4TIPD4z5aaEUAAAQQQQAABBBBAwGYBAo/NF4DTI4AAAggggAACCCCAgP8ECDz+s6VmBBBAAAEEEEAAAQQQsFmAwGPzBeD0CCCAAAIIIIAAAggg4D8BAo//bKkZAQQQQAABBBBAAAEEbBYg8Nh8ATg9AggggAACCCCAAAII+E+AwOM/W2pGAAEEEEAAAQQQQAABmwUIPDZfAE6PAAIIIIAAAggggAAC/hMg8PjPlpoRQAABBBBAAAEEEEDAZgECj80XgNMjgAACCCCAAAIIIICA/wQIPP6zpWYEEEAAAQQQQAABBBCwWYDAY/MF4PQIIIAAAggggAACCCDgPwECj/9sqRkBBBBAAAEEEEAAAQRsFiDw2HwBOD0CCCCAAAIIIIAAAgj4T4DA4z9bakYAAQQQQAABBBBAAAGbBQg8Nl8ATo8AAggggAACCCCAAAL+EyDw+M+WmhFAAAEEEEAAAQQQQMBmAQKPzReA0yOAAAIIIIAAAggggID/BAg8/rOlZgQQQAABBBBAAAEEELBZgMBj8wXg9AgggAACCCCAAAIIIOA/AQKP/2ypGQEEEEAAAQQQQAABBGwWIPDYfAE4PQIIIIAAAggggAACCPhPgMDjP1tqRgABBBBAAAEEEEAAAZsFCDw2XwBOjwACCCCAAAIIIIAAAv4TIPD4z5aaEUAAAQQQQAABBBBAwGYBAo/NF4DTI4AAAggggAACCCCAgP8ECDz+s6VmBBBAAAEEEEAAAQQQsFmAwGPzBeD0CCCAAAIIIIAAAggg4D8BAo//bKkZAQQQQAABBBBAAAEEbBYg8Nh8ATg9AggggAACCCCAAAII+E+AwOM/W2pGAAEEEEAAAQQQQAABmwUIPDZfAE6PAAIIIIAAAggggAAC/hMg8PjPlpoRQAABBBBAAAEEEEDAZgECj80XgNMjgAACCCCAAAIIIICA/wQIPP6zpWYEEEAAAQQQQAABBBCwWYDAY/MF4PQIIIAAAggggAACCCDgPwECj/9sqRkBBBBAAAEEEEAAAQRsFiDw2HwBOD0CCCCAAAIIIIAAAgj4T4DA4z9bakYAAQQQQAABBBBAAAGbBQg8Nl8ATo8AAggggAACCCCAAAL+EyDw+M+WmhFAAAEEEEAAAQQQQMBmAQKPzReA0yOAAAIIIIAAAggggID/BAg8/rOlZgQQQAABBBBAAAEEELBZgMBj8wXg9AgggAACCCCAAAIIIOA/AQKP/2ypGQEEEEAAAQQQQAABBGwWIPDYfAE4PQIIIIAAAggggAACCPhPgMDjP1tqRgABBBBAAAEEEEAAAZsFCDw2XwBOjwACCCCAAAIIIIAAAv4TIPD4z5aaEUAAAQQQQAABBBBAwGYBAo/NF4DTI4AAAggggAACCCCAgP8ECDz+s6VmBBBAAAEEEEAAAQQQsFmAwGPzBeD0CCCAAAIIIIAAAggg4D8BAo//bKkZAQQQQAABBBBAAAEEbBYg8Nh8ATg9AggggAACCCCAAAII+E+AwOM/W2pGAAEEEEAAAQQQQAABmwUIPDZfAE6PAAIIIIAAAggggAAC/hMg8PjPlpoRQAABBBBAAAEEEEDAZgECj80XgNMjgAACCCCAAAIIIICA/wQIPP6zpWYEEEAAAQQQQAABBBCwWYDAY/MF4PQIIIAAAggggAACCCDgPwECj/9sqRkBBBBAAAEEEEAAAQRsFiDw2HwBOD0CCCCAAAIIIIAAAgj4T4DA4z9bakYAAQQQQAABBBBAAAGbBQg8Nl8ATo8AAggggAACCCCAAAL+EyDw+M+WmhFAAAEEEEAAAQQQQMBmAQKPzReA0yOAAAIIIIAAAggggID/BAg8/rOlZgQQQAABBBBAAAEEELBZgMBj8wXg9AgggAACCCCAAAIIIOA/AQKP/2ypGQEEEEAAAQT+r73zAI+qSt94Zia9ACGBEAIh9JKEjnQFpEhTcEFBxbbisq5dseCua1kLC3ZR1oJSFBEVkI4KIr1IKCGNQAqkQALpbTKZ+b8zB46XO5Mw4jPOP7nvfXjived+5zvn/M48j+ed7ztnSIAESIAE3EyAgsfNE8DmSYAESIAESIAESIAESIAEXEeAgsd1bOmZBEiABEiABEiABEiABEjAzQQoeNw8AWyeBEiABEiABEiABEiABEjAdQQoeFzHlp5JgARIgARIgARIgARIgAQQEf9CAAAe20lEQVTcTICCx80TwOZJgARIgARIgARIgARIgARcR4CCx3Vs6ZkESIAESIAESIAESIAESMDNBCh43DwBbJ4ESIAESIAESIAESIAESMB1BCh4XMeWnkmABEiABEiABEiABEiABNxMgILHzRPA5kmABEiABEiABEiABEiABFxHgILHdWzpmQRIgARIgARIgARIgARIwM0EKHjcPAFsngRIgARIgARIgARIgARIwHUEKHhcx5aeSYAESIAESIAESIAESIAE3EyAgsfNE8DmSYAESIAESIAESIAESIAEXEeAgsd1bOmZBEiABEiABEiABEiABEjAzQQoeNw8AWyeBEiABEiABEiABEiABEjAdQQoeFzHlp5JgARIgARIgARIgARIgATcTICCx80TwOZJgARIgARIgARIgARIgARcR4CCx3Vs6ZkESIAESIAESIAESIAESMDNBCh43DwBbJ4ESIAESIAESIAESIAESMB1BCh4XMeWnkmABEiABEiABEiABEiABNxMgILHzRPA5kmABEiABEiABEiABEiABFxHgILHdWzpmQRIgARIgARIgARIgARIwM0EKHjcPAFsngRIgARIgARIgARIgARIwHUEKHhcx5aeSYAESIAESIAESIAESIAE3EyAgsfNE8DmSYAESIAESIAESIAESIAEXEeAgsd1bOmZBEiABEiABEiABEiABEjAzQQoeNw8AWyeBEjALQTWrl0bFRX13//+V9X6xo0bUf7SSy8536vBgwd/9dVXztvXZnny5MkBAwacPXtWZfDTTz916tSptlqifMSIER9++KG0mTdvXvfu3dPT02urNXPmzOeffx5va2tUVnzqqadee+212vy8/vrr77//fm1vZfmcOXNAFVfXrl0nTZq0efPmK1Zx3iA2NnbDhg3O2//5lnl5eRh7XFycaNpkMk2bNm3ixIlVVVXffvstgPz5XWKLJEACJKApAhQ8mppuDpYESOAyAqtXr7ZYLMqiVatWuYtRixYt7rvvvqZNm6ID0GO9evW6up6sX79+4cKF7733HhbZV/SgbNSh8fjx46+//nqHr1AIer6+vrW9VZb369cPyu2777678cYbH3/88aVLlzpTq37ZCGGTnJxcd7dffPHFEydOfPTRRz4+PpjlGTNmCHuo1sWLF9ddl29JgARIgASugoDnVdRhFRIgARJoAASaNWt24cKFffv2Ia4ihlNYWLht27Y2bdq4ZXQBAQEQPH+w6cTExCdt13XXXeeMqys2WrcfCJ7AwEBnGvLz82vfvj0sEeQJDg5GzAdSSqg7Z6o3GBsEA5fbrvDwcAyqne36XaMzm81ZWVlGoxG1goKCmjdvfurUKUyETqdr0qSJBpH+Lno0JgES0CYBRni0Oe8cNQmQgIeXl9fo0aMRc5As1q1bFxERER0dLUu2bt06btw4ZJTh23dku8nyzz//vE+fPn379kVOFxagsvzTTz+FfOrZs+cjjzwC+aSkvGnTpt69e4uS1NRUhF/S0tLwiOpIyvrxxx8TEhJQCA2GfLOHHnqooKAAj4iKiCpffvll//79kaj2r3/9SxWVkq2gLiQTAjJ///vfrzgEYSAbxSPup0yZAkEybNiwb775RhjI5Dc8osMIR8AAY0QQCSWQQyISBXRAJDLWDh8+LFt3eIMgj7+/P4Ys3u7YseOGG24A9ltuuUWER6699tolS5aItyhp27Ztbm4uHu0tVf7/97//DRw4sHPnznfccYfACwMkjwHazTffjO6hoWPHjolaKH/55ZfRKOZ31KhRKF+0aBGmtUePHtBjclrtG8WkYCohWsBBzgjqIooFz2PGjHnllVccDvzXX39FTxDhEZawQS18CMUsQLf8+9//Rq8c1hWF+BCi0aFDh2KWcc2dOxfl6DzuwR+9QrJcTk5OHR74igRIgAQ0SICCR4OTziGTAAlYCeA7ciyCsf2jsrJSEIH4mTx5cnV1tXiELMFy/84779y+ffvdd9/98MMPi6Xk/v37scnnb3/727Jly7AslutLrNE/++yzd9555+uvv8ZWHCxtlaAHDRpUVFQEnyhEHEn+xYK+oqICy3RpjF0xb7zxBsIgx48fh/YQXf3hhx+gpl599VWss0V1pXPcY2cIdA7iLdjAI1/VNgRVXfH417/+Fcv3LVu2PPDAA88888yRI0eUZqWlpdOnT0dY7Pvvv8e6/IMPPkCwAvuXoC6wUn/00UfBB5tz4OGee+7B7hSHTYhCg8EADYPtQ3hESAokcSETLyYm5t577wV/BH/QDWEMXQQRgtQ7h5bKVj755BNsZMLUICEQ9O666y45lbt27cJ+LfyF5sHoampqREXotH/84x/YSAP72267bc+ePZhE7FmC3hP7gmprFHIUPUSLckbwOfnll1/gds2aNdj4ZD98fE4wTOzYuf3221Vvu3TpgrkGk3/+858rV660rytK8MF78MEHr7nmGiQEIvcSF5jjFfovHvHZQ/AHPcGHoTYnLCcBEiABDRKg4NHgpHPIJEACVgIQPPimHKlW0BJ4zMjIwLZySCC5WBeLe3xljuwjLCKx4+Lo0aOw/OKLL/Bt+v333491KkIBYWFhAih2ZTz99NOIwyBigHKsmJXrzkaNGmFBjww6GP/8889jx44VugWrWESEkFomZwUNeXt74xGF0Aa48fT0hApC9QkTJiAchMWxNJY3iBXAObaRlJeXy8LahmBfvaysDFEURGxat26NoAdUk2pzDnQOhoOIVseOHdF5xKCgeYQfnI6AfCoEGSIjI6GUIH6khrRvSJRAYED+4R6aARoAOhPhrOeeew6FBw4cgODZu3dvSUkJDDA7CLLVZin9I+r18ccfQwAg3AH+8+fPh0KD8hEGU6dO7dChA9K9XnjhBQwTzkU5AkEYMpBiNtEc1AsCTWgOoiI+Pr6ORjEvqhnBHOGzhCrghuCh7Ji8wejy8/PPnDljH6DT6/WYazBExTr2RGGK8RnA7ix8bgEQU3b69OmdO3dipLiH8rzpppsgubFByKEktu8SS0iABEhAIwQoeDQy0RwmCZCAmgAED5atWCOKrDZ8R45EIyz3ZVigcePG+Fb+L3/5CzKFsCbGmlJsnMD6HllP0h1WurgvLi7GWnb27NndbNett96KMIIquWjIkCFYasMPkr7wXT5W9hAn+ItydecufxYLYlGGZDClpJGG0Bj44h/r5meffVYW1jYE++ZQUURaECZCkAF5VlhAK80Q60D0RigxlEMSYLWN2BTuEedBEAbKATIPA0TaG9q1b0JZgqU/9p+gBNlcaE5AE5ARo8CyvlWrVsgnhH5Dphn0VW2W0idCLoiqIclQlEA0orcpKSmqbqBjyFrMzMwU5WLucC92IkFFiHJIFwHZYfdg48yMqJqGc0wQphuaRPXKyUd8nPDBgy6C/YoVK6DWlBemA+XQdQALhk76pBkJkAAJaIEADy3QwixzjCRAAg4IiE0aCOlgSwnW3zixbdasWbCTmzfwHT/iGG+99RZiF/jqXXlsmlz3q/zCGElTslBsTJeP+GIeIYjdu3dDQWHZjVU+kqywAka+nIP+/c4ixCjg/80334TWQkYWduPAQR1DsHeP4AzCWUghQ6oeIjxwgoiNNMOQRbhJlEDOIVIBcQhtAHWB9LZDhw5BokDIQatgx5HUEvYNIVIE0Yioi3iFNDYky0mz0NBQ3CPMgtgOVAd0i8To0FJUFDOibBQ9FAJV1QEU2sdY7DspS+wbFWG6Oqo4fIWNPUhcxAl12HiDTUpQJg7N6ijE8Qb48IA5Po34rKpS45D1h7oHDx5EqEqcD1GHK74iARIgAU0RoODR1HRzsCRAAmoCUB1YeiLTCV+fI5NK+RrBCmyrwDZ3FGKNLlfPWHcqjx4Wq2dkrCF/DEEeEY5AFURyVIt+hEGwGEViEtKuYAAdhcMPkI+ElDZVt8S3+Oq+1vksUqEQpEKgBsPBlqGWLVvWNgR7T9jtA8n3xBNP4NgDbObBznvsRYHek5bIE8M2G3AQg8LCGjoEo4aBCMVAaEHIYQMPhonkQLkv374t7HGCkkEQCa8AXxzhIMwATWT3IXkPiggZbnJSarMUFRGiQX8gujChKEFeIhL/5AEAUsQiZIRAkDMHdgu3dTeqGlrdsyYmCEIFuCB7EFdUfTzqro62xBYgJBwi6igo4URBMMdMiQEiyIMUQQTfrhgztJ8UlpAACZBAAybAlLYGPLkcGgmQgFMEsIEEm9chQkSSlayDZTFyorAjHIt7bG2XKW3Y3Y6lPyIhSOhCMCQ7O1tUwXr03Xffxb4RrDuxwQOrUlUkAV/MYzGKnfHDhw9HFQgeRHjwrb99MATnC+OQN2zPUB315sx4IFqwDsZftF7bEOz9QDBgDwwiVGJbCOSf6rhk5P5hRY58OegT7NdfsGABTnQQfiAF8TOmYIhMKvzFcJShIWGDjDtEdZKSknC8G84VQDRJRHLgBBtOwA1vcZAdglTiQDboFhy4jBPSpICszVKOBVoCAS7MC3qIzVSIO0mxhGkCdswmjhNA1qI8iNyeg6rkio0q7SH/kOoGPaNKZVTawACQcWCD/Q+2IucNAlWc5eCwY9gzhtAZXuHQiMdsF7aT4RHySTzikDrocyjqK2onh/5ZSAIkQAINlQAjPA11ZjkuEiABZwlg0zyO8II+UVUYOXIkNAwykZAuhUMLkEqEjTqwQewC63UsnaEoEAmRuUnIfYIowknHUClIxMLi237diQU9VvYIHMEP1q8IwmADjH1HsSJHiAarbexQt3dib68sgd54++23ESHBXhF0yeEQ7D0gIQqnwOGAMgiSkJAQ1FLFuxCgwAlmOHoOyWYwwHFhcC78YJENgYHzDM6dO4eh4ag0eZCDbAhnM+DEOeS/YWsQVvxSxgAUtBNOpYPmgUzCkc0iNQsVMQSce4bcP+GkDkthgDnCBGEfEf5ijnCcnTwKApDBBGdOQAGiOagOewIOSxw26vDQCFTH5wTcMGUITOET4tAhCqG4EIKDdMTRF0obTDcw4jeU6vj1W8Rz8BYfPHHQnBgIhBxK8DlR5hzW1jrLSYAESECDBHT4X68Gh80hkwAJkAAJaIQAEtsg0pS/TaSRgXOYJEACJEACgoCz33KRFwmQAAmQAAmQAAmQAAmQAAnUOwIUPPVuythhEiABEiABEiABEiABEiABZwkwpc1ZUrQjARIgARIgARIgARIgARKodwQY4al3U8YOkwAJkAAJkAAJkAAJkAAJOEuAgsdZUrQjARIgARIgARIgARIgARKodwQoeOrdlLHDJEACJEACJEACJEACJEACzhKg4HGWFO1IgARIgARIgARIgARIgATqHQEKnno3ZewwCZAACZAACZAACZAACZCAswQoeJwlRTsSIAESIAESIAESIAESIIF6R4CCp95NGTtMAiRAAi4kUGMy5Z7KtJjNoo2v536Um3bahe3RNQmQAAmQAAm4mAAFj4sB0z0JkAAJ1CsC1ZXGTR8sN1ZWiV5PevjOpuHN69UI2FkSIAESIAESuIwAf3iUHwgSIAES0CgBi8VSx8gvnM45tGJ9eEynrqMG6w0GWCLsk7T7UFjb1k0jwuqoeHWvdDqd6I+8uTo/qKX0oLq/ap+sSAIkQAIkUH8JMMJTf+eOPScBEiCBP0rAoeYRhalb9578ae+uBV9kH0sRzZiqTbs/W7X6PwtkwlsdzTv07Iy9fUWIFlFR3tjbKD0r39ZtWUd/+IoESIAESKDBEKDgaTBTyYGQAAmQwO8mICTE6YTUpO0HTFVGUV8Udhk9pFmrFgE6vR7PtsvLx3vkQ7d7e3pWlVfKlsQr+8dLlX7TKiixN5MtyrdKh/JeeYMqwlg2oawi3qoqSue/GxArkAAJkAAJ1H8CTGmr/3PIEZAACZDAHyBQcr5w4YzZXjWmbqMGj37yPnhCVEQoBEtNjbGi0icwAIXmGvPRrzdWFBT1uuNG30aBf6BBViUBEiABEiCBP5UAIzx/Km42RgIkQAL/fwhA2ODyDfTvMri3n59vSGQEHiuLSvKPpVQVl1qTwfR67wB/YZZ74GjK0jWpa7duffkDc02NKMxKSSs8dx4jEo/WKrZL+ejwXlgq/4pa+FuQmZuXmonD4qQ36VA6Fzf2j6It+VblQVmL9yRAAiRAAtoh4KmdoXKkJEACJEAC9gSQqDZhzixoA71eX5h2ZtfT83VlFYGtwvq98phfaDDKL0Z7jCY/a3qbR8Hx1PMnT4d2bANXOrMlbvMvw2dMlm6F/fmDiSWJ6U37Rzfu3AbVhQ7JO5SUf/REo3YREUN7ISlNqh2ZbyYsf56/OP/kmduWvOzftHF+Wtb+L9d3nzisVfdOUr2o8tPOpp3ZsuibgZNHdewTI7oh+3yx55eGYD92lpAACZAACWiBACM8WphljpEESIAEaiUghAS0AZLWUr/doi+v9IWwycrPXLxGagxUDusXExTe3NvD4O2hqy6rEO7CO7cdMGm0yjVqFSekn167szQjR0gdGBQmZxx+44uzBxNDottbt+DYLllRih9rifXFxV8Bit+0I23n4f0rNip7In3CFvfxOw4m7z3y64ZfpDfhWZjhr7IhVVf5SAIkQAIkoAUCjPBoYZY5RhIgARK4AgGbKrB4Vpl8LXo/nc5bpzOdL5J1IBs8/Xx7P3Nf4merPYL8wmI74pWxrKIgKzesU1thJmUGHi9pjIuSxmysTlm60VJjiZk52S+0ibC3lyJKZYJ7XDE3DCm9UNR93FD5StYSNyiPHton60R677FDla8UfbCKIuXjFUDwNQmQAAmQQIMjwAhPg5tSDogESIAEnCOwbt6nBVlnha1VFeh1rccN9fHUG/QWvY9X5B3jlW5gENS+db8XHuj35D0GT+uXZYdXbvxu9uvZx08IRSGMhVCRFfFoMVuOvb+yIDmjw/RRIbHtlca4F9uBpJ6xVtSZPS7FfkKiIsbPuT+yVzf7AVk925RMeLvIu/7zWKe+sUonuDebzcq27D2whARIgARIQCMEGOHRyERzmCRAAiSgJmAsK4PeQKkUD017dunx9jPFCamNOkb5d4gU5TWFJTUXirxat/DwNOg8bb9AalMaVSXlNVXGkweOtYy2BnykuhDCQ2dTLSjM3X303N748MHd2910negBCivyCw9/vPpcSnp5YbF3o8DIAd1jp4/xbRIkDFAXNrhO7o7bt3Rd5xH9+0y1Js6dOhC/a9mas2eyDd7e4e0jJz07yzfAL3H/kR8+Wdl79JChU8eiCn4sKG7rnl3f/5SRnO7p7dWmW7sR0yZ06xuLV5fJKtES/5IACZAACWiAAAWPBiaZQyQBEiABRwQmP/8gtA7e1BirTVVV3rbjp/2jIvDvN3OzueC1T8ypWUEzb/a7YRBkg3zV8foBxzZsCwxupPItbCweVktTRVXyorU426DT7WOVZnovT72/b687J+r9fZLWbE3dvNtkrB74yHRhI+ri3lhaWZiRU1FQiHtsMdo8f1FFacXQeycbvLzyzuT4+PtCw1SVluelZyPzTbS7d8O2te9/0Sis2Yw5swrO5a/+eEViXNLD85/q3Cta1U8+kgAJkAAJaIQABY9GJprDJAESIAE1Ab3BAJGQfShh58sfBuh10XdNirpxhDoMYrZUped4GqvL45IgeJRvw7q0m/jq4y2jO6XGHe/QK/ryitBReoijE4vWmXHCgcXj3IGEqAlDZA8QzBnw6EV5ExbTfs0Dr6Zvj+s7c7J3gJ+wgTfhELIJAR9cJXkXyotKo/pFD5gy5rKRXDr8ADb5WWc3fLTCNzBg1rzZoS3DYNa+e5e3H3/tq7cWP73wRb8AfzUCPpMACZAACWiAAPfwaGCSOUQSIAEScERAhERyDifVGI2I8KSt3GQxXfyBHbwSe2CQB+YX21Hn7xswvB8KxWU21eAtznKL7B1j8Pbas/oHhF/QgjRAbTyaK41FiRkRYwcZfL1Prfq5utKoMLDewk91ZZXe2yu0U5S5urr03AWbgbWvwhI31rMUbI+NwkIahYdmHko8vHF7dZXxYvdEBdueH9we3xuHSFHPEf1DwpsLD5Gd27WIiijMLzifm++IActIgARIgAQaPgFGeBr+HHOEJEACJFAHgaYdIs22c6Cb9onWGX77FkwEWFAS/NTdNSVlhkupa3kHj5/atCNsYI+o6wcKdTLxwRnWgw4U2W7W5qw/7KNrOeaa1mMHBrZqlvDhd/ELvu6JqI7e2oSxpDz1+x15CSeLz53vOm20TbBcOqnAWvdSf60+xT9rlGfis/fv/HzVlveW7V+9rdf4a/tMGHYxCnSp7eLzhRiJiO0IFzAIaBRoMpmMlVWXnPK/JEACJEAC2iJAwaOt+eZoSYAESEASEGqh7bV98dujptIyCBhRglOka8oqcFCb3s+6ScbD28sz5OJZ0pX5BXFzPykrr8hMPNF25CDhKrh5qIqqzY/1qLdWo/vjVatR/TN+2Hduf8L5xPTQmPbQQgfeXZ57ILH1sD6xd41v2jHy9N54mKEOKlp1j0hiw60Ocsea1CaK8bM/U159LO3Q8c0Ll29asNxYUTnoFmwNsljNbUY+/n6wLisuFfbwhOqQOgaDXpwsx9knARIgARLQIAGmtGlw0jlkEiABErASyE5Jy04+BW3QekAPqBchEqoKipLnfprwxBtJT79ZePC4ilT6ph0VlRVGD3N5Sak6pHO5KVSI8mozbrCluiblq81QO5UFJXmHkj2bBPR78JaQzlFQKqZy6y+ZXnQowzuOZgmdbNcnZtpLjwSFNE7Z9aupyqi06tCjCxTOke37akzW0+dwVVVU5mRk+wUGBDcLduSPZSRAAiRAAg2fAAVPw59jjpAESIAEHBI4sefw9iWrxF4X+TdtzdacfUfL8vLL0nKyV2xSva1GcphFZ7JYQmy/N6p6Kx/xSm8L1ciS8EHd/du0KDiecXLdDgNiRz7eSJM7eySlID378JL15xMyLDqz2OQjUttERVvo5qKfytLyI+u3555Iz8/MzjmRaSyv8A0K1OOkbPyAkG14qBIV3TF6UK/8M7mrFyzNOpmZkXhy4Zw3UHHY5FFBwY0dQmAhCZAACZBAgyfAlLYGP8UcIAmQAAk4JtB/6g04MwDvIBUQORF/z586jbMF8JudBp3eVFisfAXL9hOGp2zdZykr7XPPzbuXfd9xaN9mbVoqPeBeppOJVuHBWuhp6PXItF3PLEhfuyN8YGzXW0fGL9mwb95Ss97gG9ak+51jDy1aX5FX6NH1t65aNY+i46ePpfz0wQqDl6fFS1deXoUIz6hZ03HQnE0T2dSVrekpj9+7/LUPd6/dduDHPYjzVFVU3Thz6shbL/sRVYVX3pIACZAACTR8Arr09PSGP0qOkARIgARIwI6AEDMolje4z9y2L+6dZR7VRoPOo92kUd3um6KqhywyHFGQtOPg+nmfTn39iajuXewce5Tn5BvPF/uGh/iGNJbO8SOnxaey8Zs/jaLCPf18LySnF2Tmevn5tOjdBb8Qmp96OqBZcGCz4LzUzOryyrCu7aBtyi4UFZ7JDQgJbhLRHK3gZOqshFOlRcW+QQEd+sX6BlqPmS4tKMo/nRsUGhzS0mqDCy2mxadkp53x9PbuENspNMJ6PjUvEiABEiABzRKg4NHs1HPgJEACWidwMfZyKbYjcOCA6bwjSTkH48N6dg3r0w1nTyNsAq2C4569/XyFDSr+snhV8u7D97z7nJevj1I4CQMZ5JFNoFwpq5SPShvpX3hw/pWqIfhx2AetTznHTwIkQAKaJEDBo8lp56BJgARIwEZA6AQBY9vC5WfjU6LHXhcz7jqoBVzi7amf9+1f+FVVpXHs3Cebd7Zu3cFVVV6h1+uVEgiFoor9X1FF/JU6BI/K1pXl4pX0o6x+xXuVrLqiPQ1IgARIgAQaPAHu4WnwU8wBkgAJkIBjAkq9AfFxbNv+6sIii257t1GDPX28hXLANpjkLbsKUW4wePp6S0c4AFrcKwWGcKj8a9/wZY1e0kjSFW6E8pFyS3qQDQkPwkx6U+klpUPhU9lP+16xhARIgARIoAEToOBpwJPLoZEACZCAswSQunbbvNnpvx6PiO5g8PaSokWn13UYM9QjKKDz8P5NWocjsQ37baRTe22j0iG1yRupZ1QGKs8yyOPQTGgY5SuH9w61kLNcaEcCJEACJFD/CTClrf7PIUdAAiRAAldFQCkP7CMqcFlWWOLfOFAKhsNbdhm8DLHDB8jWZC1pI0SIMHCoUsQr++aEB6lhlAbi3r4ErlSvpBPxStUN2cmrosVKJEACJEAC9ZUAf4envs4c+00CJEACf5xAHZoEzr+d/3GNySRb6TSgR/S1/Rw2Cj/SlbhRelYpDeWjk6+crFLHcKh2HE4cC0mABEhACwQY4dHCLHOMJEACJEACJEACJEACJKBRAozwaHTiOWwSIAESIAESIAESIAES0AIBCh4tzDLHSAIkQAIkQAIkQAIkQAIaJUDBo9GJ57BJgARIgARIgARIgARIQAsEKHi0MMscIwmQAAmQAAmQAAmQAAlolMD/AWTZfL+O673cAAAAAElFTkSuQmCC;" vertex="1" parent="1">
          <mxGeometry x="90" y="120" width="614" height="433.8" as="geometry" />
        </mxCell>
        <mxCell id="gF-pBE-bCyinGbdZzywU-2" value="" style="rounded=0;whiteSpace=wrap;html=1;sketch=1;hachureGap=4;jiggle=2;curveFitting=1;fontFamily=Architects Daughter;fontSource=https%3A%2F%2Ffonts.googleapis.com%2Fcss%3Ffamily%3DArchitects%2BDaughter;fontSize=20;fillColor=#fff2cc;strokeColor=#d6b656;" vertex="1" parent="1">
          <mxGeometry x="80" y="110" width="640" height="40" as="geometry" />
        </mxCell>
        <mxCell id="gF-pBE-bCyinGbdZzywU-3" value="" style="rounded=0;whiteSpace=wrap;html=1;sketch=1;hachureGap=4;jiggle=2;curveFitting=1;fontFamily=Architects Daughter;fontSource=https%3A%2F%2Ffonts.googleapis.com%2Fcss%3Ffamily%3DArchitects%2BDaughter;fontSize=20;fillColor=#fff2cc;strokeColor=#d6b656;" vertex="1" parent="1">
          <mxGeometry x="80" y="510" width="640" height="50" as="geometry" />
        </mxCell>
        <mxCell id="gF-pBE-bCyinGbdZzywU-4" value="" style="rounded=0;whiteSpace=wrap;html=1;sketch=1;hachureGap=4;jiggle=2;curveFitting=1;fontFamily=Architects Daughter;fontSource=https%3A%2F%2Ffonts.googleapis.com%2Fcss%3Ffamily%3DArchitects%2BDaughter;fontSize=20;fillColor=#fff2cc;strokeColor=#d6b656;" vertex="1" parent="1">
          <mxGeometry x="260" y="450" width="270" height="30" as="geometry" />
        </mxCell>
        <mxCell id="gF-pBE-bCyinGbdZzywU-5" value="" style="rounded=0;whiteSpace=wrap;html=1;sketch=1;hachureGap=4;jiggle=2;curveFitting=1;fontFamily=Architects Daughter;fontSource=https%3A%2F%2Ffonts.googleapis.com%2Fcss%3Ffamily%3DArchitects%2BDaughter;fontSize=20;fillColor=#fff2cc;strokeColor=#d6b656;" vertex="1" parent="1">
          <mxGeometry x="265" y="180" width="265" height="80" as="geometry" />
        </mxCell>
        <mxCell id="gF-pBE-bCyinGbdZzywU-6" value="footer" style="text;html=1;strokeColor=none;fillColor=none;align=center;verticalAlign=middle;whiteSpace=wrap;rounded=0;fontSize=20;fontFamily=Architects Daughter;" vertex="1" parent="1">
          <mxGeometry x="110" y="520" width="60" height="30" as="geometry" />
        </mxCell>
        <mxCell id="gF-pBE-bCyinGbdZzywU-9" value="header" style="text;html=1;strokeColor=none;fillColor=none;align=center;verticalAlign=middle;whiteSpace=wrap;rounded=0;fontSize=20;fontFamily=Architects Daughter;" vertex="1" parent="1">
          <mxGeometry x="100" y="115" width="60" height="30" as="geometry" />
        </mxCell>
        <mxCell id="gF-pBE-bCyinGbdZzywU-10" value="banner" style="text;html=1;strokeColor=none;fillColor=none;align=center;verticalAlign=middle;whiteSpace=wrap;rounded=0;fontSize=20;fontFamily=Architects Daughter;" vertex="1" parent="1">
          <mxGeometry x="190" y="205" width="60" height="30" as="geometry" />
        </mxCell>
        <mxCell id="gF-pBE-bCyinGbdZzywU-11" value="options" style="text;html=1;strokeColor=none;fillColor=none;align=center;verticalAlign=middle;whiteSpace=wrap;rounded=0;fontSize=20;fontFamily=Architects Daughter;" vertex="1" parent="1">
          <mxGeometry x="180" y="450" width="60" height="30" as="geometry" />
        </mxCell>
      </root>
    </mxGraphModel>
  </diagram>
</mxfile>
